<svg width="173" height="173" viewBox="0 0 173 173" fill="none" xmlns="http://www.w3.org/2000/svg">
<path d="M43.2499 165.792C39.2853 165.792 35.8902 164.379 33.0646 161.553C30.2389 158.727 28.8285 155.335 28.8333 151.375V21.6249C28.8333 17.6603 30.2461 14.2652 33.0718 11.4396C35.8974 8.61389 39.2902 7.20346 43.2499 7.20826H115.333C119.298 7.20826 122.693 8.6211 125.519 11.4468C128.344 14.2724 129.755 17.6652 129.75 21.6249V50.4583H115.333V43.2499H43.2499V129.75H115.333V122.542H129.75V151.375C129.75 155.34 128.337 158.735 125.511 161.56C122.686 164.386 119.293 165.796 115.333 165.792H43.2499ZM43.2499 144.167V151.375H115.333V144.167H43.2499ZM107.765 115.333L77.1291 84.6978L87.2208 74.6062L107.765 95.1499L148.492 54.4228L158.583 64.5145L107.765 115.333ZM43.2499 28.8333H115.333V21.6249H43.2499V28.8333Z" fill="#762990"/>
</svg>
