<svg width="48" height="48" viewBox="0 0 48 48" fill="none" xmlns="http://www.w3.org/2000/svg">
<path d="M12 46C10.9 46 9.958 45.608 9.174 44.824C8.39 44.04 7.99867 43.0987 8 42V6C8 4.9 8.392 3.958 9.176 3.174C9.96 2.39 10.9013 1.99867 12 2H32C33.1 2 34.042 2.392 34.826 3.176C35.61 3.96 36.0013 4.90134 36 6V14H32V12H12V36H32V34H36V42C36 43.1 35.608 44.042 34.824 44.826C34.04 45.61 33.0987 46.0013 32 46H12ZM12 40V42H32V40H12ZM29.9 32L21.4 23.5L24.2 20.7L29.9 26.4L41.2 15.1L44 17.9L29.9 32ZM12 8H32V6H12V8Z" fill="#762990"/>
</svg>
