<svg width="52" height="56" viewBox="0 0 52 56" fill="none" xmlns="http://www.w3.org/2000/svg">
<path d="M5.60485 33.702V7.18769C5.60485 5.81183 6.09321 4.49232 6.96249 3.51944C7.83177 2.54656 9.01077 2 10.2401 2H41.7599C42.9892 2 44.1682 2.54656 45.0375 3.51944C45.9068 4.49232 46.3951 5.81183 46.3951 7.18769V33.702M5.60485 33.702H46.3951M5.60485 33.702L2.17476 47.2782C1.97995 48.0496 1.9475 48.861 2.07997 49.6487C2.21244 50.4365 2.50621 51.1792 2.93824 51.8185C3.37027 52.4578 3.92881 52.9764 4.57002 53.3336C5.21122 53.6907 5.91766 53.8767 6.63388 53.8769H45.3661C46.0823 53.8767 46.7888 53.6907 47.43 53.3336C48.0712 52.9764 48.6297 52.4578 49.0618 51.8185C49.4938 51.1792 49.7876 50.4365 49.92 49.6487C50.0525 48.861 50.0201 48.0496 49.8252 47.2782L46.3951 33.702" stroke="#762990" stroke-width="4"/>
<path d="M23.6824 46.0952H28.3176ZM30.6353 12.3752L35.2705 17.5629L30.6353 22.7506M21.3648 12.3752L16.7295 17.5629L21.3648 22.7506" fill="#762990"/>
</svg>
