<svg width="69" height="66" viewBox="0 0 69 66" fill="none" xmlns="http://www.w3.org/2000/svg">
<path d="M6.02839 40.2122V7.41667C6.02839 5.71486 6.70959 4.08276 7.92215 2.8794C9.1347 1.67604 10.7793 1 12.4941 1H56.4608C58.1756 1 59.8202 1.67604 61.0328 2.8794C62.2453 4.08276 62.9265 5.71486 62.9265 7.41667V40.2122M6.02839 40.2122H62.9265M6.02839 40.2122L1.24377 57.0047C0.972031 57.9588 0.926771 58.9624 1.11155 59.9368C1.29632 60.9111 1.70611 61.8298 2.30875 62.6206C2.91139 63.4114 3.69048 64.0528 4.5849 64.4946C5.47931 64.9363 6.46471 65.1664 7.46377 65.1667H61.4911C62.4902 65.1664 63.4756 64.9363 64.37 64.4946C65.2644 64.0528 66.0435 63.4114 66.6462 62.6206C67.2488 61.8298 67.6586 60.9111 67.8434 59.9368C68.0281 58.9624 67.9829 57.9588 67.7111 57.0047L62.9265 40.2122" stroke="#762990" stroke-width="1.5"/>
<path d="M31.2446 55.5417H37.7103M40.9432 13.8333L47.4089 20.25L40.9432 26.6667M28.0118 13.8333L21.5461 20.25L28.0118 26.6667" stroke="#1B121E" stroke-width="1.5" stroke-linecap="round" stroke-linejoin="round"/>
</svg>
