<svg width="180" height="180" viewBox="0 0 180 180" fill="none" xmlns="http://www.w3.org/2000/svg">
<path d="M39.6421 171.239C39.6421 171.239 37.1812 174.375 30.7827 174.375C24.3843 174.375 21.9233 171.239 21.9233 171.239V61.4673H39.6421V171.239Z" fill="#9E9E9E"/>
<path d="M39.6421 171.239C39.6421 171.239 37.1812 174.375 30.7827 174.375C24.3843 174.375 21.9233 171.239 21.9233 171.239V128.953C21.9233 128.953 23.7233 125.522 30.3046 125.522C36.8858 125.522 39.6421 128.953 39.6421 128.953V171.239Z" fill="#BDBDBD"/>
<path d="M158.062 171.239C158.062 171.239 155.602 174.375 149.203 174.375C142.805 174.375 140.344 171.239 140.344 171.239V61.4673H158.062V171.239Z" fill="#9E9E9E"/>
<path d="M158.062 171.239C158.062 171.239 155.602 174.375 149.203 174.375C142.805 174.375 140.344 171.239 140.344 171.239V128.953C140.344 128.953 142.144 125.522 148.725 125.522C155.306 125.522 158.062 128.953 158.062 128.953V171.239Z" fill="#BDBDBD"/>
<path d="M170.536 115.116H9.46406C7.34063 115.116 5.625 113.4 5.625 111.276V62.114C5.625 59.9905 7.34063 58.2749 9.46406 58.2749H170.536C172.659 58.2749 174.375 59.9905 174.375 62.114V111.276C174.375 113.4 172.659 115.116 170.536 115.116Z" fill="#9E9E9E"/>
<path d="M170.536 61.0874H9.46406C7.34063 61.0874 5.625 62.803 5.625 64.9265V114.089C5.625 116.212 7.34063 117.928 9.46406 117.928H170.536C172.659 117.928 174.375 116.212 174.375 114.089V64.9265C174.375 62.803 172.659 61.0874 170.536 61.0874Z" fill="#FFD600"/>
<path d="M24.5109 61.0874L5.625 79.9733V107.817L52.3547 61.0874H24.5109ZM77.4844 61.0874L20.6578 117.928H48.5016L105.328 61.0874H77.4844ZM130.472 61.0874L73.6313 117.928H101.475L158.302 61.0874H130.472ZM174.375 70.1577L126.605 117.928H154.448L174.375 98.0015V70.1577Z" fill="#212121"/>
<path d="M160.031 63.5485H138.389C136.364 63.5485 134.873 62.2266 135.352 60.8766L136.856 51.4407H161.536L163.041 60.8766C163.547 62.2407 162.056 63.5485 160.031 63.5485Z" fill="#E2A610"/>
<path d="M149.203 51.2156C159.074 51.2156 167.076 43.2134 167.076 33.3422C167.076 23.471 159.074 15.4688 149.203 15.4688C139.332 15.4688 131.33 23.471 131.33 33.3422C131.33 43.2134 139.332 51.2156 149.203 51.2156Z" fill="#FFCA28"/>
<path d="M149.203 46.5468C156.496 46.5468 162.408 40.6349 162.408 33.3421C162.408 26.0494 156.496 20.1375 149.203 20.1375C141.91 20.1375 135.999 26.0494 135.999 33.3421C135.999 40.6349 141.91 46.5468 149.203 46.5468Z" fill="#FF5722"/>
<path d="M161.55 51.5813H136.87C136.87 51.5813 136.954 47.6438 144.014 47.6438H154.476C161.944 47.6438 161.55 51.5813 161.55 51.5813Z" fill="#FFCA28"/>
<path d="M150.764 27.0141L154.139 22.6547C154.294 22.4578 154.603 22.6125 154.547 22.8516L153.239 28.2094C152.93 29.4609 153.886 30.6703 155.18 30.6422L160.692 30.5578C160.946 30.5578 161.016 30.8953 160.791 31.0078L155.785 33.3281C154.617 33.8766 154.28 35.3672 155.096 36.3656L158.597 40.6266C158.752 40.8234 158.541 41.0906 158.316 40.9781L153.38 38.5172C152.227 37.9406 150.849 38.6016 150.567 39.8672L149.414 45.2672C149.358 45.5203 149.006 45.5203 148.964 45.2672L147.811 39.8672C147.544 38.6016 146.152 37.9406 144.999 38.5172L140.063 40.9781C139.838 41.0906 139.613 40.8094 139.781 40.6266L143.283 36.3656C144.099 35.3672 143.761 33.8766 142.594 33.3281L137.588 31.0078C137.363 30.8953 137.433 30.5578 137.686 30.5578L143.199 30.6422C144.492 30.6563 145.449 29.4609 145.139 28.2094L143.831 22.8516C143.775 22.6125 144.085 22.4578 144.239 22.6547L147.614 27.0141C148.444 28.0266 149.977 28.0266 150.764 27.0141Z" fill="#FFD5CA"/>
<path d="M41.6108 63.5485H19.9687C17.9437 63.5485 16.453 62.2266 16.9312 60.8766L18.4358 51.4407H43.1155L44.6202 60.8766C45.1265 62.2407 43.6358 63.5485 41.6108 63.5485Z" fill="#E2A610"/>
<path d="M30.7968 51.2156C40.668 51.2156 48.6702 43.2134 48.6702 33.3422C48.6702 23.471 40.668 15.4688 30.7968 15.4688C20.9256 15.4688 12.9233 23.471 12.9233 33.3422C12.9233 43.2134 20.9256 51.2156 30.7968 51.2156Z" fill="#FFCA28"/>
<path d="M30.797 46.5468C38.0897 46.5468 44.0017 40.6349 44.0017 33.3421C44.0017 26.0494 38.0897 20.1375 30.797 20.1375C23.5042 20.1375 17.5923 26.0494 17.5923 33.3421C17.5923 40.6349 23.5042 46.5468 30.797 46.5468Z" fill="#FF5722"/>
<path d="M43.1299 51.5813H18.4502C18.4502 51.5813 18.5346 47.6438 25.5939 47.6438H36.0564C43.5236 47.6438 43.1299 51.5813 43.1299 51.5813Z" fill="#FFCA28"/>
<path d="M32.3439 27.0141L35.7189 22.6547C35.8736 22.4578 36.183 22.6125 36.1267 22.8516L34.8189 28.2094C34.5095 29.4609 35.4658 30.6703 36.7595 30.6422L42.272 30.5578C42.5251 30.5578 42.5954 30.8953 42.3704 31.0078L37.3642 33.3281C36.197 33.8766 35.8595 35.3672 36.6751 36.3656L40.1767 40.6266C40.3314 40.8234 40.1205 41.0906 39.8955 40.9781L34.9595 38.5172C33.8064 37.9406 32.4283 38.6016 32.147 39.8672L30.9939 45.2672C30.9376 45.5203 30.5861 45.5203 30.5439 45.2672L29.3908 39.8672C29.1236 38.6016 27.7314 37.9406 26.5783 38.5172L21.6423 40.9781C21.4173 41.0906 21.1923 40.8094 21.3611 40.6266L24.8626 36.3656C25.6783 35.3672 25.3408 33.8766 24.1736 33.3281L19.1673 31.0078C18.9423 30.8953 19.0126 30.5578 19.2658 30.5578L24.7783 30.6422C26.072 30.6563 27.0283 29.4609 26.7189 28.2094L25.4111 22.8516C25.3548 22.6125 25.6642 22.4578 25.8189 22.6547L29.1939 27.0141C30.0236 28.0266 31.5564 28.0266 32.3439 27.0141Z" fill="#FFD5CA"/>
</svg>
