<svg width="180" height="172" viewBox="0 0 180 172" fill="none" xmlns="http://www.w3.org/2000/svg">
<path d="M175.854 147.071L128.769 99.9865L108.563 120.193L155.647 167.278C161.271 172.901 170.326 172.901 175.854 167.278C181.382 161.654 181.382 152.599 175.854 147.071ZM144.019 70.916C162.415 70.916 177.379 55.9518 177.379 37.5563C177.379 32.0282 175.854 26.8812 173.471 22.3062L147.736 48.0408L133.535 33.8391L159.269 8.10454C154.694 5.72171 149.547 4.19669 144.019 4.19669C125.624 4.19669 110.66 19.1609 110.66 37.5563C110.66 41.4642 111.422 45.1814 112.661 48.6127L95.0283 66.2456L78.0625 49.2799C78.9461 48.3981 79.6471 47.3507 80.1254 46.1977C80.6037 45.0446 80.8499 43.8086 80.8499 42.5603C80.8499 41.312 80.6037 40.0759 80.1254 38.9229C79.6471 37.7699 78.9461 36.7225 78.0625 35.8407L71.2953 29.0734L91.5017 8.86704C86.1403 3.51233 78.8727 0.504639 71.2953 0.504639C63.7178 0.504639 56.4503 3.51233 51.0889 8.86704L24.2105 35.8407C23.3269 36.7225 22.6259 37.7699 22.1476 38.9229C21.6693 40.0759 21.4232 41.312 21.4232 42.5603C21.4232 43.8086 21.6693 45.0446 22.1476 46.1977C22.6259 47.3507 23.3269 48.3981 24.2105 49.2799L30.9778 56.0471H6.76821C4.95726 56.0471 3.24162 56.7143 2.00255 58.0487C1.36853 58.6699 0.864839 59.4114 0.520978 60.2297C0.177118 61.048 0 61.9267 0 62.8143C0 63.702 0.177118 64.5807 0.520978 65.399C0.864839 66.2173 1.36853 66.9588 2.00255 67.58L26.2121 91.7896C26.8333 92.4236 27.5748 92.9273 28.3931 93.2711C29.2114 93.615 30.0901 93.7921 30.9778 93.7921C31.8654 93.7921 32.7441 93.615 33.5624 93.2711C34.3807 92.9273 35.1222 92.4236 35.7434 91.7896C36.9825 90.5505 37.745 88.8348 37.745 87.0239V62.8143L44.4169 69.4863C48.1342 73.2035 54.1389 73.2035 57.8561 69.4863L74.8219 86.452L14.298 146.976C12.9608 148.297 11.8992 149.87 11.1746 151.604C10.45 153.339 10.0769 155.2 10.0769 157.079C10.0769 158.959 10.45 160.82 11.1746 162.554C11.8992 164.288 12.9608 165.861 14.298 167.182C19.9214 172.806 28.9762 172.806 34.5044 167.182L132.868 68.9144C136.394 70.1535 140.111 70.916 144.019 70.916Z" fill="#E2A610"/>
</svg>
