<svg width="48" height="48" viewBox="0 0 48 48" fill="none" xmlns="http://www.w3.org/2000/svg">
<path d="M18 36C16.9 36 15.958 35.608 15.174 34.824C14.39 34.04 13.9987 33.0987 14 32V8C14 6.9 14.392 5.958 15.176 5.174C15.96 4.39 16.9013 3.99867 18 4H36C37.1 4 38.042 4.392 38.826 5.176C39.61 5.96 40.0013 6.90134 40 8V32C40 33.1 39.608 34.042 38.824 34.826C38.04 35.61 37.0987 36.0013 36 36H18ZM18 32H36V8H18V32ZM10 44C8.9 44 7.958 43.608 7.174 42.824C6.39 42.04 5.99867 41.0987 6 40V14C6 13.4333 6.192 12.958 6.576 12.574C6.96 12.19 7.43467 11.9987 8 12C8.56667 12 9.042 12.192 9.426 12.576C9.81 12.96 10.0013 13.4347 10 14V40H30C30.5667 40 31.042 40.192 31.426 40.576C31.81 40.96 32.0013 41.4347 32 42C32 42.5667 31.808 43.042 31.424 43.426C31.04 43.81 30.5653 44.0013 30 44H10Z" fill="#762990"/>
</svg>
