<svg width="173" height="173" viewBox="0 0 173 173" fill="none" xmlns="http://www.w3.org/2000/svg">
<path d="M64.875 129.75C60.9104 129.75 57.5153 128.337 54.6896 125.511C51.864 122.686 50.4535 119.293 50.4583 115.333V28.8333C50.4583 24.8687 51.8712 21.4736 54.6968 18.6479C57.5225 15.8223 60.9152 14.4118 64.875 14.4166H129.75C133.715 14.4166 137.11 15.8295 139.935 18.6551C142.761 21.4808 144.171 24.8735 144.167 28.8333V115.333C144.167 119.298 142.754 122.693 139.928 125.519C137.103 128.344 133.71 129.755 129.75 129.75H64.875ZM64.875 115.333H129.75V28.8333H64.875V115.333ZM36.0417 158.583C32.0771 158.583 28.682 157.17 25.8563 154.345C23.0306 151.519 21.6202 148.126 21.625 144.167V50.4583C21.625 48.4159 22.317 46.7028 23.701 45.3188C25.085 43.9348 26.7958 43.2452 28.8333 43.25C30.8757 43.25 32.5889 43.942 33.9729 45.326C35.3569 46.71 36.0465 48.4207 36.0417 50.4583V144.167H108.125C110.167 144.167 111.881 144.859 113.265 146.243C114.649 147.627 115.338 149.337 115.333 151.375C115.333 153.417 114.641 155.131 113.257 156.515C111.873 157.898 110.163 158.588 108.125 158.583H36.0417Z" fill="#762990"/>
</svg>
