<svg width="48" height="48" viewBox="0 0 48 48" fill="none" xmlns="http://www.w3.org/2000/svg">
<path d="M6.67603 34C8.43107 37.0414 10.9562 39.567 13.9974 41.3225C17.0386 43.0779 20.4885 44.0014 24 44C27.5115 44.0014 30.9614 43.0779 34.0026 41.3225C37.0438 39.567 39.569 37.0414 41.324 34M6.67603 14C8.43107 10.9586 10.9562 8.43303 13.9974 6.67755C17.0386 4.92207 20.4885 3.99858 24 4C27.5115 3.99858 30.9614 4.92207 34.0026 6.67755C37.0438 8.43303 39.569 10.9586 41.324 14" stroke="#762990" stroke-width="4" stroke-linecap="round" stroke-linejoin="round"/>
<path d="M26 43.9001C26 43.9001 28.816 40.1941 30.59 34.0001M26 4.1001C26 4.1001 28.816 7.8041 30.59 14.0001M22 43.9001C22 43.9001 19.184 40.1961 17.41 34.0001M22 4.1001C22 4.1001 19.184 7.8041 17.41 14.0001M18 20.0001L21 30.0001L24 20.0001L27 30.0001L30 20.0001M2 20.0001L5 30.0001L8 20.0001L11 30.0001L14 20.0001M34 20.0001L37 30.0001L40 20.0001L43 30.0001L46 20.0001" stroke="#762990" stroke-width="3" stroke-linecap="round" stroke-linejoin="round"/>
</svg>
