<svg width="207" height="37" viewBox="0 0 207 37" fill="none" xmlns="http://www.w3.org/2000/svg">
<path fill-rule="evenodd" clip-rule="evenodd" d="M35.19 18.5C35.19 21.7601 34.321 24.8152 32.8042 27.4418C31.2875 24.8152 30.4185 21.7601 30.4185 18.5C30.4185 15.2399 31.2875 12.1848 32.8042 9.55823C34.321 12.1848 35.19 15.2399 35.19 18.5ZM24.9014 2.3273C18.8309 5.13001 14.6128 11.3174 14.6128 18.5C14.6128 25.6826 18.8309 31.87 24.9014 34.6727C22.676 35.7001 20.2017 36.2727 17.595 36.2727C7.87755 36.2727 0 28.3156 0 18.5C0 8.68439 7.87755 0.727272 17.595 0.727272C20.2017 0.727272 22.676 1.29985 24.9014 2.3273ZM40.1106 2.61654C37.0606 4.16797 34.5186 6.58942 32.8042 9.55823C30.9793 6.39793 28.2166 3.85789 24.9014 2.3273C27.1268 1.29985 29.6011 0.727272 32.2078 0.727272C35.0498 0.727272 37.7344 1.40788 40.1106 2.61654ZM40.1106 2.61654C42.4869 1.40788 45.1715 0.727272 48.0135 0.727272C57.7309 0.727272 65.6085 8.68439 65.6085 18.5C65.6085 28.3156 57.7309 36.2727 48.0135 36.2727C45.1715 36.2727 42.4869 35.5921 40.1106 34.3835C45.8592 31.4594 49.8028 25.4449 49.8028 18.5C49.8028 11.5551 45.8592 5.54057 40.1106 2.61654ZM40.1106 34.3835C37.0606 32.832 34.5186 30.4106 32.8042 27.4418C30.9793 30.6021 28.2166 33.1421 24.9014 34.6727C27.1268 35.7001 29.6011 36.2727 32.2078 36.2727C35.0498 36.2727 37.7344 35.5921 40.1106 34.3835Z" fill="#762991"/>
<path d="M147.587 14.6818H144.293V4.00587H147.733C148.769 4.00587 149.655 4.2196 150.392 4.64705C151.129 5.07103 151.693 5.68094 152.086 6.47677C152.479 7.26913 152.675 8.21787 152.675 9.32299C152.675 10.4351 152.477 11.3925 152.081 12.1953C151.685 12.9946 151.108 13.6097 150.35 14.0406C149.592 14.4681 148.672 14.6818 147.587 14.6818ZM145.586 13.535H147.504C148.387 13.535 149.118 13.3647 149.698 13.0241C150.279 12.6836 150.711 12.1988 150.996 11.5697C151.281 10.9407 151.424 10.1918 151.424 9.32299C151.424 8.46113 151.283 7.71917 151.002 7.0971C150.72 6.47156 150.3 5.99197 149.74 5.65835C149.181 5.32125 148.484 5.1527 147.65 5.1527H145.586V13.535Z" fill="#4F4F51"/>
<path d="M154.677 14.6818V6.67486H155.907V14.6818H154.677ZM155.302 5.34037C155.063 5.34037 154.856 5.2587 154.682 5.09536C154.512 4.93202 154.427 4.73567 154.427 4.50631C154.427 4.27694 154.512 4.08059 154.682 3.91725C154.856 3.75392 155.063 3.67225 155.302 3.67225C155.542 3.67225 155.747 3.75392 155.917 3.91725C156.091 4.08059 156.178 4.27694 156.178 4.50631C156.178 4.73567 156.091 4.93202 155.917 5.09536C155.747 5.2587 155.542 5.34037 155.302 5.34037Z" fill="#4F4F51"/>
<path d="M161.392 17.8512C160.798 17.8512 160.287 17.7748 159.86 17.6219C159.432 17.4724 159.076 17.2743 158.791 17.0276C158.51 16.7843 158.285 16.5237 158.119 16.2457L159.099 15.5576C159.21 15.7035 159.351 15.8704 159.521 16.058C159.691 16.2492 159.924 16.4142 160.219 16.5532C160.518 16.6957 160.909 16.767 161.392 16.767C162.039 16.767 162.572 16.6106 162.993 16.2978C163.413 15.985 163.623 15.495 163.623 14.8278V13.2014H163.519C163.429 13.3473 163.3 13.528 163.133 13.7435C162.97 13.9555 162.734 14.1449 162.424 14.3117C162.119 14.475 161.705 14.5567 161.184 14.5567C160.537 14.5567 159.957 14.4038 159.443 14.098C158.932 13.7922 158.527 13.3473 158.228 12.7635C157.933 12.1796 157.785 11.4707 157.785 10.6366C157.785 9.81648 157.929 9.10232 158.218 8.49415C158.506 7.88251 158.907 7.40987 159.422 7.07625C159.936 6.73915 160.53 6.5706 161.205 6.5706C161.726 6.5706 162.139 6.65748 162.445 6.83124C162.755 7.00153 162.991 7.19615 163.154 7.41509C163.321 7.63055 163.45 7.80779 163.54 7.9468H163.665V6.67486H164.854V14.9112C164.854 15.5993 164.697 16.1588 164.384 16.5897C164.075 17.0241 163.658 17.3421 163.133 17.5437C162.612 17.7487 162.032 17.8512 161.392 17.8512ZM161.351 13.4516C161.844 13.4516 162.261 13.3386 162.602 13.1127C162.942 12.8869 163.201 12.5619 163.378 12.1379C163.556 11.714 163.644 11.2066 163.644 10.6158C163.644 10.0389 163.557 9.52977 163.384 9.08841C163.21 8.64706 162.953 8.30127 162.612 8.05105C162.271 7.80084 161.851 7.67573 161.351 7.67573C160.829 7.67573 160.395 7.80779 160.047 8.07191C159.703 8.33602 159.444 8.6905 159.271 9.13533C159.1 9.58016 159.015 10.0736 159.015 10.6158C159.015 11.1718 159.102 11.6636 159.276 12.091C159.453 12.515 159.714 12.8486 160.058 13.0919C160.405 13.3317 160.836 13.4516 161.351 13.4516Z" fill="#4F4F51"/>
<path d="M167.106 14.6818V6.67486H168.336V14.6818H167.106ZM167.731 5.34037C167.491 5.34037 167.284 5.2587 167.111 5.09536C166.94 4.93202 166.855 4.73567 166.855 4.50631C166.855 4.27694 166.94 4.08059 167.111 3.91725C167.284 3.75392 167.491 3.67225 167.731 3.67225C167.971 3.67225 168.176 3.75392 168.346 3.91725C168.52 4.08059 168.607 4.27694 168.607 4.50631C168.607 4.73567 168.52 4.93202 168.346 5.09536C168.176 5.2587 167.971 5.34037 167.731 5.34037Z" fill="#4F4F51"/>
<path d="M174.071 6.67486V7.71743H169.922V6.67486H174.071ZM171.131 4.75652H172.361V12.3882C172.361 12.7357 172.412 12.9963 172.513 13.1701C172.617 13.3404 172.749 13.4551 172.909 13.5141C173.072 13.5697 173.244 13.5975 173.425 13.5975C173.56 13.5975 173.672 13.5906 173.758 13.5767C173.845 13.5593 173.915 13.5454 173.967 13.535L174.217 14.6401C174.134 14.6714 174.017 14.7027 173.868 14.7339C173.718 14.7687 173.529 14.7861 173.3 14.7861C172.952 14.7861 172.612 14.7114 172.278 14.5619C171.948 14.4125 171.673 14.1849 171.454 13.879C171.239 13.5732 171.131 13.1875 171.131 12.7218V4.75652Z" fill="#4F4F51"/>
<path d="M178.278 14.8695C177.771 14.8695 177.31 14.7739 176.897 14.5828C176.483 14.3882 176.155 14.1084 175.911 13.7435C175.668 13.3751 175.546 12.9303 175.546 12.409C175.546 11.9503 175.637 11.5784 175.818 11.2935C175.998 11.005 176.24 10.7791 176.542 10.6158C176.844 10.4524 177.178 10.3308 177.543 10.2509C177.911 10.1675 178.281 10.1014 178.653 10.0528C179.14 9.99024 179.534 9.94332 179.837 9.91205C180.142 9.87729 180.365 9.81995 180.504 9.74002C180.646 9.66009 180.718 9.52108 180.718 9.32299V9.28129C180.718 8.76695 180.577 8.3673 180.295 8.08233C180.017 7.79736 179.595 7.65488 179.029 7.65488C178.441 7.65488 177.981 7.78346 177.647 8.04063C177.314 8.2978 177.079 8.57234 176.944 8.86426L175.776 8.44723C175.984 7.9607 176.262 7.5819 176.61 7.31083C176.961 7.03628 177.343 6.84515 177.757 6.73741C178.174 6.62621 178.584 6.5706 178.987 6.5706C179.244 6.5706 179.54 6.60188 179.873 6.66443C180.21 6.72351 180.535 6.84688 180.848 7.03455C181.164 7.22221 181.427 7.50544 181.635 7.88424C181.844 8.26304 181.948 8.77043 181.948 9.4064V14.6818H180.718V13.5975H180.655C180.572 13.7713 180.433 13.9572 180.238 14.1553C180.043 14.3534 179.785 14.522 179.461 14.661C179.138 14.8 178.744 14.8695 178.278 14.8695ZM178.466 13.7644C178.952 13.7644 179.362 13.6688 179.696 13.4776C180.033 13.2865 180.287 13.0398 180.457 12.7374C180.631 12.4351 180.718 12.1171 180.718 11.7835V10.6575C180.665 10.72 180.551 10.7774 180.374 10.8295C180.2 10.8782 179.998 10.9216 179.769 10.9598C179.543 10.9946 179.322 11.0259 179.107 11.0537C178.895 11.078 178.723 11.0988 178.591 11.1162C178.271 11.1579 177.972 11.2257 177.694 11.3195C177.42 11.4099 177.197 11.5471 177.027 11.7313C176.86 11.912 176.777 12.1588 176.777 12.4716C176.777 12.899 176.935 13.2222 177.251 13.4412C177.571 13.6566 177.976 13.7644 178.466 13.7644Z" fill="#4F4F51"/>
<path d="M185.424 4.00587V14.6818H184.193V4.00587H185.424Z" fill="#4F4F51"/>
<path d="M150.131 23.4476C150.069 22.9194 149.815 22.5093 149.37 22.2174C148.925 21.9254 148.38 21.7795 147.733 21.7795C147.261 21.7795 146.847 21.8559 146.493 22.0088C146.142 22.1618 145.867 22.372 145.669 22.6396C145.474 22.9072 145.377 23.2113 145.377 23.5519C145.377 23.8368 145.445 24.0818 145.58 24.2869C145.719 24.4884 145.897 24.657 146.112 24.7925C146.327 24.9246 146.553 25.034 146.79 25.1209C147.026 25.2043 147.243 25.2721 147.441 25.3242L148.526 25.6161C148.804 25.6891 149.113 25.7899 149.453 25.9185C149.798 26.0471 150.126 26.2226 150.439 26.445C150.755 26.6639 151.016 26.9454 151.221 27.2895C151.426 27.6335 151.528 28.0558 151.528 28.5562C151.528 29.1331 151.377 29.6544 151.075 30.1201C150.776 30.5857 150.338 30.9559 149.761 31.2304C149.188 31.5049 148.491 31.6422 147.671 31.6422C146.906 31.6422 146.244 31.5188 145.685 31.2721C145.129 31.0254 144.691 30.6813 144.371 30.24C144.055 29.7986 143.876 29.286 143.834 28.7022H145.168C145.203 29.1053 145.339 29.4389 145.575 29.703C145.815 29.9637 146.117 30.1583 146.482 30.2869C146.85 30.412 147.247 30.4745 147.671 30.4745C148.164 30.4745 148.607 30.3946 149 30.2347C149.393 30.0714 149.704 29.8455 149.933 29.5571C150.162 29.2652 150.277 28.9246 150.277 28.5354C150.277 28.1809 150.178 27.8924 149.98 27.67C149.782 27.4476 149.521 27.2669 149.198 27.1279C148.875 26.9889 148.526 26.8672 148.15 26.763L146.837 26.3877C146.003 26.1479 145.342 25.8055 144.856 25.3607C144.369 24.9159 144.126 24.3338 144.126 23.6144C144.126 23.0167 144.288 22.4954 144.611 22.0505C144.937 21.6022 145.375 21.2547 145.924 21.008C146.477 20.7578 147.094 20.6326 147.775 20.6326C148.463 20.6326 149.075 20.756 149.61 21.0028C150.145 21.246 150.569 21.5797 150.882 22.0036C151.198 22.4276 151.365 22.9089 151.382 23.4476H150.131Z" fill="#4F4F51"/>
<path d="M156.74 31.6214C156.017 31.6214 155.383 31.4493 154.837 31.1053C154.295 30.7612 153.871 30.2799 153.565 29.6613C153.263 29.0427 153.112 28.3199 153.112 27.4928C153.112 26.6587 153.263 25.9307 153.565 25.3086C153.871 24.6865 154.295 24.2035 154.837 23.8594C155.383 23.5154 156.017 23.3433 156.74 23.3433C157.463 23.3433 158.095 23.5154 158.637 23.8594C159.183 24.2035 159.607 24.6865 159.909 25.3086C160.215 25.9307 160.368 26.6587 160.368 27.4928C160.368 28.3199 160.215 29.0427 159.909 29.6613C159.607 30.2799 159.183 30.7612 158.637 31.1053C158.095 31.4493 157.463 31.6214 156.74 31.6214ZM156.74 30.5162C157.289 30.5162 157.741 30.3755 158.095 30.094C158.45 29.8125 158.712 29.4424 158.882 28.9837C159.053 28.5249 159.138 28.028 159.138 27.4928C159.138 26.9576 159.053 26.4589 158.882 25.9967C158.712 25.5345 158.45 25.1609 158.095 24.8759C157.741 24.5909 157.289 24.4485 156.74 24.4485C156.191 24.4485 155.739 24.5909 155.384 24.8759C155.03 25.1609 154.768 25.5345 154.597 25.9967C154.427 26.4589 154.342 26.9576 154.342 27.4928C154.342 28.028 154.427 28.5249 154.597 28.9837C154.768 29.4424 155.03 29.8125 155.384 30.094C155.739 30.3755 156.191 30.5162 156.74 30.5162Z" fill="#4F4F51"/>
<path d="M163.476 20.7786V31.4546H162.246V20.7786H163.476Z" fill="#4F4F51"/>
<path d="M170.775 28.1809V23.4476H172.006V31.4546H170.775V30.0992H170.692C170.504 30.5058 170.212 30.8516 169.816 31.1366C169.42 31.4181 168.92 31.5588 168.315 31.5588C167.814 31.5588 167.37 31.4493 166.98 31.2304C166.591 31.008 166.285 30.6744 166.063 30.2295C165.841 29.7812 165.729 29.2165 165.729 28.5354V23.4476H166.96V28.4519C166.96 29.0358 167.123 29.5015 167.45 29.849C167.78 30.1965 168.2 30.3703 168.711 30.3703C169.017 30.3703 169.328 30.2921 169.644 30.1357C169.964 29.9793 170.231 29.7395 170.447 29.4163C170.666 29.0931 170.775 28.6813 170.775 28.1809Z" fill="#4F4F51"/>
<path d="M177.741 23.4476V24.4902H173.592V23.4476H177.741ZM174.801 21.5293H176.031V29.1609C176.031 29.5084 176.082 29.7691 176.182 29.9428C176.287 30.1131 176.419 30.2278 176.579 30.2869C176.742 30.3425 176.914 30.3703 177.095 30.3703C177.23 30.3703 177.341 30.3633 177.428 30.3494C177.515 30.3321 177.585 30.3181 177.637 30.3077L177.887 31.4129C177.804 31.4441 177.687 31.4754 177.538 31.5067C177.388 31.5414 177.199 31.5588 176.97 31.5588C176.622 31.5588 176.281 31.4841 175.948 31.3347C175.618 31.1852 175.343 30.9576 175.124 30.6518C174.909 30.346 174.801 29.9602 174.801 29.4945V21.5293Z" fill="#4F4F51"/>
<path d="M179.592 31.4546V23.4476H180.822V31.4546H179.592ZM180.217 22.1131C179.977 22.1131 179.771 22.0314 179.597 21.8681C179.427 21.7048 179.341 21.5084 179.341 21.279C179.341 21.0497 179.427 20.8533 179.597 20.69C179.771 20.5267 179.977 20.445 180.217 20.445C180.457 20.445 180.662 20.5267 180.832 20.69C181.006 20.8533 181.093 21.0497 181.093 21.279C181.093 21.5084 181.006 21.7048 180.832 21.8681C180.662 22.0314 180.457 22.1131 180.217 22.1131Z" fill="#4F4F51"/>
<path d="M186.328 31.6214C185.605 31.6214 184.971 31.4493 184.425 31.1053C183.883 30.7612 183.459 30.2799 183.153 29.6613C182.851 29.0427 182.7 28.3199 182.7 27.4928C182.7 26.6587 182.851 25.9307 183.153 25.3086C183.459 24.6865 183.883 24.2035 184.425 23.8594C184.971 23.5154 185.605 23.3433 186.328 23.3433C187.051 23.3433 187.683 23.5154 188.225 23.8594C188.771 24.2035 189.195 24.6865 189.497 25.3086C189.803 25.9307 189.956 26.6587 189.956 27.4928C189.956 28.3199 189.803 29.0427 189.497 29.6613C189.195 30.2799 188.771 30.7612 188.225 31.1053C187.683 31.4493 187.051 31.6214 186.328 31.6214ZM186.328 30.5162C186.877 30.5162 187.329 30.3755 187.683 30.094C188.038 29.8125 188.3 29.4424 188.47 28.9837C188.641 28.5249 188.726 28.028 188.726 27.4928C188.726 26.9576 188.641 26.4589 188.47 25.9967C188.3 25.5345 188.038 25.1609 187.683 24.8759C187.329 24.5909 186.877 24.4485 186.328 24.4485C185.779 24.4485 185.327 24.5909 184.973 24.8759C184.618 25.1609 184.356 25.5345 184.185 25.9967C184.015 26.4589 183.93 26.9576 183.93 27.4928C183.93 28.028 184.015 28.5249 184.185 28.9837C184.356 29.4424 184.618 29.8125 184.973 30.094C185.327 30.3755 185.779 30.5162 186.328 30.5162Z" fill="#4F4F51"/>
<path d="M193.064 26.6379V31.4546H191.834V23.4476H193.023V24.6987H193.127C193.314 24.2921 193.599 23.9654 193.982 23.7187C194.364 23.4684 194.858 23.3433 195.462 23.3433C196.004 23.3433 196.479 23.4545 196.885 23.677C197.292 23.8959 197.608 24.2295 197.834 24.6778C198.06 25.1227 198.173 25.6857 198.173 26.3668V31.4546H196.943V26.4502C196.943 25.8212 196.779 25.3312 196.453 24.9802C196.126 24.6257 195.678 24.4485 195.108 24.4485C194.715 24.4485 194.364 24.5336 194.055 24.7039C193.749 24.8742 193.507 25.1227 193.33 25.4493C193.153 25.776 193.064 26.1722 193.064 26.6379Z" fill="#4F4F51"/>
<path d="M206.093 25.2408L204.987 25.5536C204.918 25.3694 204.815 25.1904 204.68 25.0167C204.548 24.8394 204.367 24.6935 204.138 24.5788C203.908 24.4641 203.615 24.4068 203.257 24.4068C202.767 24.4068 202.358 24.5197 202.032 24.7456C201.709 24.968 201.547 25.2512 201.547 25.5953C201.547 25.9011 201.658 26.1426 201.881 26.3199C202.103 26.4971 202.45 26.6448 202.923 26.763L204.112 27.0549C204.828 27.2287 205.361 27.4945 205.712 27.8525C206.063 28.2069 206.238 28.6639 206.238 29.2234C206.238 29.6822 206.106 30.0923 205.842 30.4537C205.582 30.8151 205.217 31.1001 204.748 31.3086C204.278 31.5171 203.733 31.6214 203.111 31.6214C202.294 31.6214 201.618 31.4441 201.083 31.0897C200.548 30.7352 200.209 30.2174 200.066 29.5362L201.234 29.2443C201.345 29.6752 201.556 29.9984 201.865 30.2139C202.178 30.4294 202.586 30.5371 203.09 30.5371C203.663 30.5371 204.119 30.4155 204.456 30.1722C204.796 29.9254 204.967 29.6301 204.967 29.286C204.967 29.008 204.869 28.7751 204.675 28.5875C204.48 28.3963 204.181 28.2539 203.778 28.16L202.444 27.8473C201.71 27.6735 201.172 27.4042 200.828 27.0393C200.487 26.6709 200.317 26.2104 200.317 25.6578C200.317 25.2061 200.444 24.8064 200.697 24.4589C200.954 24.1114 201.304 23.8386 201.745 23.6405C202.19 23.4424 202.694 23.3433 203.257 23.3433C204.049 23.3433 204.671 23.5171 205.123 23.8646C205.578 24.2121 205.901 24.6709 206.093 25.2408Z" fill="#4F4F51"/>
<path d="M78.5973 34.2727L69.8892 2.87449H74.8718L80.9889 27.1897H81.2802L87.6427 2.87449H92.5793L98.9417 27.2051H99.233L105.335 2.87449H110.333L101.609 34.2727H96.8414L90.2336 10.7547H89.9883L83.3806 34.2727H78.5973Z" fill="black"/>
<path d="M114.652 34.2727V2.87449H126.151C128.379 2.87449 130.224 3.24244 131.685 3.97833C133.147 4.70401 134.24 5.69031 134.966 6.93725C135.692 8.17396 136.055 9.5691 136.055 11.1227C136.055 12.4309 135.814 13.5348 135.334 14.4342C134.854 15.3234 134.21 16.0389 133.402 16.5806C132.605 17.112 131.726 17.5004 130.765 17.7457V18.0523C131.808 18.1035 132.825 18.4407 133.816 19.0642C134.818 19.6775 135.646 20.5513 136.3 21.6858C136.954 22.8203 137.281 24.2001 137.281 25.8252C137.281 27.4299 136.903 28.871 136.147 30.1486C135.401 31.416 134.246 32.4228 132.682 33.1689C131.118 33.9048 129.12 34.2727 126.687 34.2727H114.652ZM119.39 30.21H126.227C128.496 30.21 130.121 29.7705 131.103 28.8915C132.084 28.0125 132.574 26.9138 132.574 25.5953C132.574 24.6039 132.324 23.6942 131.823 22.8663C131.322 22.0385 130.607 21.3792 129.677 20.8886C128.757 20.398 127.663 20.1527 126.396 20.1527H119.39V30.21ZM119.39 16.4579H125.737C126.8 16.4579 127.755 16.2535 128.604 15.8447C129.462 15.4358 130.142 14.8635 130.643 14.1276C131.154 13.3815 131.409 12.5025 131.409 11.4906C131.409 10.1926 130.954 9.10405 130.045 8.22507C129.135 7.34608 127.74 6.90659 125.859 6.90659H119.39V16.4579Z" fill="black"/>
</svg>
