<svg width="24" height="24" viewBox="0 0 24 24" fill="none" xmlns="http://www.w3.org/2000/svg">
<mask id="path-1-inside-1_251_718" fill="white">
<path d="M19.5866 15.0282L15.1578 13.0435C14.9572 12.9575 14.7382 12.9229 14.5208 12.9429C14.3034 12.9629 14.0945 13.0368 13.9128 13.1579C13.8944 13.1697 13.8768 13.1829 13.8603 13.1972L11.5456 15.166C11.5216 15.1791 11.4949 15.1864 11.4675 15.1874C11.4402 15.1884 11.413 15.183 11.3881 15.1716C9.90032 14.4535 8.35907 12.9216 7.63814 11.4544C7.62613 11.4299 7.61989 11.403 7.61989 11.3757C7.61989 11.3484 7.62613 11.3214 7.63814 11.2969L9.61345 8.95318C9.62762 8.93584 9.64077 8.91768 9.65282 8.8988C9.77225 8.71646 9.84439 8.50725 9.86272 8.29006C9.88105 8.07286 9.845 7.85452 9.75782 7.65474L7.7872 3.23349C7.67529 2.9725 7.48175 2.75484 7.23563 2.61319C6.98951 2.47154 6.70409 2.41353 6.4222 2.44787C5.1971 2.60893 4.07256 3.21056 3.25872 4.14034C2.44488 5.07011 1.99744 6.26441 2.00001 7.50005C2.00001 14.8407 7.97189 20.8126 15.3125 20.8126C16.5481 20.8149 17.7423 20.3674 18.672 19.5536C19.6018 18.7398 20.2034 17.6154 20.3647 16.3904C20.399 16.1098 20.3417 15.8257 20.2015 15.5802C20.0613 15.3348 19.8457 15.1412 19.5866 15.0282ZM15.3125 19.6876C8.59251 19.6876 3.12501 14.2201 3.12501 7.50005C3.12188 6.53811 3.46908 5.60794 4.10174 4.88331C4.7344 4.15869 5.60925 3.6892 6.56282 3.56255H6.58439C6.62217 3.56326 6.65885 3.57536 6.68963 3.59728C6.72041 3.61919 6.74386 3.6499 6.75689 3.68537L8.73501 8.10193C8.74629 8.12648 8.75213 8.15319 8.75213 8.18021C8.75213 8.20723 8.74629 8.23394 8.73501 8.25849L6.75595 10.6079C6.74118 10.6246 6.72771 10.6425 6.71564 10.6613C6.5918 10.8504 6.51887 11.0682 6.50393 11.2937C6.48898 11.5192 6.53252 11.7447 6.63032 11.9485C7.46189 13.651 9.17751 15.3535 10.8988 16.1851C11.1037 16.2823 11.3303 16.3248 11.5566 16.3084C11.7828 16.2919 12.001 16.2172 12.1897 16.0913C12.2075 16.0791 12.2253 16.066 12.2422 16.0519L14.5559 14.0832C14.5788 14.0709 14.604 14.0637 14.6299 14.0621C14.6558 14.0605 14.6817 14.0645 14.7059 14.0738L19.1356 16.0585C19.1718 16.0739 19.2022 16.1003 19.2226 16.1339C19.243 16.1676 19.2522 16.2068 19.2491 16.246C19.1231 17.2 18.654 18.0755 17.9296 18.7089C17.2051 19.3422 16.2748 19.6901 15.3125 19.6876Z"/>
</mask>
<path d="M19.5866 15.0282L15.1578 13.0435C14.9572 12.9575 14.7382 12.9229 14.5208 12.9429C14.3034 12.9629 14.0945 13.0368 13.9128 13.1579C13.8944 13.1697 13.8768 13.1829 13.8603 13.1972L11.5456 15.166C11.5216 15.1791 11.4949 15.1864 11.4675 15.1874C11.4402 15.1884 11.413 15.183 11.3881 15.1716C9.90032 14.4535 8.35907 12.9216 7.63814 11.4544C7.62613 11.4299 7.61989 11.403 7.61989 11.3757C7.61989 11.3484 7.62613 11.3214 7.63814 11.2969L9.61345 8.95318C9.62762 8.93584 9.64077 8.91768 9.65282 8.8988C9.77225 8.71646 9.84439 8.50725 9.86272 8.29006C9.88105 8.07286 9.845 7.85452 9.75782 7.65474L7.7872 3.23349C7.67529 2.9725 7.48175 2.75484 7.23563 2.61319C6.98951 2.47154 6.70409 2.41353 6.4222 2.44787C5.1971 2.60893 4.07256 3.21056 3.25872 4.14034C2.44488 5.07011 1.99744 6.26441 2.00001 7.50005C2.00001 14.8407 7.97189 20.8126 15.3125 20.8126C16.5481 20.8149 17.7423 20.3674 18.672 19.5536C19.6018 18.7398 20.2034 17.6154 20.3647 16.3904C20.399 16.1098 20.3417 15.8257 20.2015 15.5802C20.0613 15.3348 19.8457 15.1412 19.5866 15.0282ZM15.3125 19.6876C8.59251 19.6876 3.12501 14.2201 3.12501 7.50005C3.12188 6.53811 3.46908 5.60794 4.10174 4.88331C4.7344 4.15869 5.60925 3.6892 6.56282 3.56255H6.58439C6.62217 3.56326 6.65885 3.57536 6.68963 3.59728C6.72041 3.61919 6.74386 3.6499 6.75689 3.68537L8.73501 8.10193C8.74629 8.12648 8.75213 8.15319 8.75213 8.18021C8.75213 8.20723 8.74629 8.23394 8.73501 8.25849L6.75595 10.6079C6.74118 10.6246 6.72771 10.6425 6.71564 10.6613C6.5918 10.8504 6.51887 11.0682 6.50393 11.2937C6.48898 11.5192 6.53252 11.7447 6.63032 11.9485C7.46189 13.651 9.17751 15.3535 10.8988 16.1851C11.1037 16.2823 11.3303 16.3248 11.5566 16.3084C11.7828 16.2919 12.001 16.2172 12.1897 16.0913C12.2075 16.0791 12.2253 16.066 12.2422 16.0519L14.5559 14.0832C14.5788 14.0709 14.604 14.0637 14.6299 14.0621C14.6558 14.0605 14.6817 14.0645 14.7059 14.0738L19.1356 16.0585C19.1718 16.0739 19.2022 16.1003 19.2226 16.1339C19.243 16.1676 19.2522 16.2068 19.2491 16.246C19.1231 17.2 18.654 18.0755 17.9296 18.7089C17.2051 19.3422 16.2748 19.6901 15.3125 19.6876Z" fill="black"/>
<path d="M19.5866 15.0282L4.86435 47.8802L5.02931 47.9541L5.19499 48.0264L19.5866 15.0282ZM15.1578 13.0435L29.88 -19.8085L29.6091 -19.9299L29.3363 -20.0469L15.1578 13.0435ZM13.9128 13.1579L33.3599 43.4532L33.6229 43.2844L33.8829 43.1111L13.9128 13.1579ZM13.8603 13.1972L37.1844 40.6197L37.3423 40.4853L37.4987 40.3492L13.8603 13.1972ZM11.5456 15.166L28.7801 46.7725L32.0407 44.9946L34.8697 42.5884L11.5456 15.166ZM11.3881 15.1716L-4.26054 47.5926L-3.90593 47.7637L-3.54765 47.9271L11.3881 15.1716ZM7.63814 11.4544L-24.6935 27.2869L-24.6827 27.3088L-24.672 27.3308L7.63814 11.4544ZM7.61989 11.3757L43.6199 11.3757L7.61989 11.3757ZM7.63814 11.2969L-19.8892 -11.9031L-22.7448 -8.515L-24.6935 -4.53553L7.63814 11.2969ZM9.61345 8.95318L37.1408 32.1533L37.3161 31.9452L37.4883 31.7346L9.61345 8.95318ZM9.65282 8.8988L-20.4625 -10.8259L-20.5766 -10.6518L-20.6886 -10.4764L9.65282 8.8988ZM9.75782 7.65474L42.7532 -6.74339L42.6968 -6.8725L42.6395 -7.00116L9.75782 7.65474ZM7.7872 3.23349L-25.2994 17.4207L-25.1986 17.6558L-25.0945 17.8894L7.7872 3.23349ZM6.4222 2.44787L2.06879 -33.2879L1.89919 -33.2673L1.7298 -33.245L6.4222 2.44787ZM2.00001 7.50005L38 7.50005V7.46264L37.9999 7.42523L2.00001 7.50005ZM15.3125 20.8126L15.3815 -15.1874L15.347 -15.1874H15.3125V20.8126ZM20.3647 16.3904L56.0568 21.0885L56.0788 20.9219L56.0991 20.755L20.3647 16.3904ZM15.3125 19.6876L15.4093 -16.3123L15.3609 -16.3124H15.3125V19.6876ZM3.12501 7.50005H39.125V7.44141L39.1248 7.38277L3.12501 7.50005ZM6.56282 3.56255V-32.4374H4.18268L1.82326 -32.1241L6.56282 3.56255ZM6.58439 3.56255L7.25639 -32.4312L6.92042 -32.4374H6.58439V3.56255ZM6.75689 3.68537L-27.0351 16.0991L-26.6064 17.2661L-26.0982 18.4008L6.75689 3.68537ZM8.73501 8.10193L-24.1201 22.8173L-24.0495 22.975L-23.9774 23.1319L8.73501 8.10193ZM8.73501 8.25849L36.2681 31.4518L39.4108 27.721L41.4474 23.2885L8.73501 8.25849ZM6.75595 10.6079L33.777 34.3957L34.0363 34.1012L34.2891 33.8011L6.75595 10.6079ZM6.71564 10.6613L36.83 30.3876L36.9203 30.2497L37.0094 30.1109L6.71564 10.6613ZM6.63032 11.9485L-25.824 27.5279L-25.771 27.6382L-25.7173 27.7482L6.63032 11.9485ZM10.8988 16.1851L-4.76159 48.6004L-4.64949 48.6545L-4.53703 48.7079L10.8988 16.1851ZM12.1897 16.0913L32.1625 46.0427L32.3411 45.9236L32.5183 45.8024L12.1897 16.0913ZM12.2422 16.0519L35.2888 43.7079L35.4309 43.5895L35.5717 43.4697L12.2422 16.0519ZM14.5559 14.0832L-2.48461 -17.6283L-5.85744 -15.8159L-8.77358 -13.3346L14.5559 14.0832ZM14.7059 14.0738L29.4256 -18.7794L28.5552 -19.1694L27.6654 -19.5127L14.7059 14.0738ZM19.1356 16.0585L4.41601 48.9117L4.72219 49.0489L5.03087 49.1803L19.1356 16.0585ZM19.2491 16.246L54.9392 20.9589L55.0601 20.044L55.1338 19.1242L19.2491 16.246ZM34.3088 -17.8239L29.88 -19.8085L0.435605 45.8955L4.86435 47.8802L34.3088 -17.8239ZM29.3363 -20.0469C23.6317 -22.4911 17.4076 -23.4739 11.2275 -22.9061L17.8142 48.792C12.0689 49.3198 6.28259 48.4062 0.979365 46.1338L29.3363 -20.0469ZM11.2275 -22.9061C5.04732 -22.3384 -0.893582 -20.238 -6.05729 -16.7953L33.8829 43.1111C29.0825 46.3116 23.5596 48.2641 17.8142 48.792L11.2275 -22.9061ZM-5.53428 -17.1375C-7.02412 -16.1812 -8.44248 -15.1174 -9.77805 -13.9547L37.4987 40.3492C36.1962 41.4831 34.8129 42.5206 33.3599 43.4532L-5.53428 -17.1375ZM-9.46372 -14.2252L-11.7784 -12.2564L34.8697 42.5884L37.1844 40.6197L-9.46372 -14.2252ZM-5.68879 -16.4406C-0.806872 -19.1026 4.62706 -20.5913 10.1827 -20.7897L12.7524 51.1645C18.3627 50.9641 23.8501 49.4608 28.7801 46.7725L-5.68879 -16.4406ZM10.1827 -20.7897C15.7386 -20.9881 21.2649 -19.8907 26.3239 -17.5839L-3.54765 47.9271C1.56115 50.2566 7.14178 51.3648 12.7524 51.1645L10.1827 -20.7897ZM27.0368 -17.2493C30.5923 -15.5332 33.0247 -13.5058 34.5793 -11.9636C36.1287 -10.4266 38.1912 -7.99773 39.9482 -4.4219L-24.672 27.3308C-20.3915 36.042 -12.9729 43.3874 -4.26054 47.5926L27.0368 -17.2493ZM39.9697 -4.37803C42.3715 0.526626 43.6199 5.91519 43.6199 11.3757H-28.3801C-28.3801 16.8908 -27.1192 22.3332 -24.6935 27.2869L39.9697 -4.37803ZM43.6199 11.3757C43.6199 16.8364 42.3714 22.2249 39.9697 27.1294L-24.6935 -4.53553C-27.1192 0.417982 -28.3801 5.8604 -28.3801 11.3757L43.6199 11.3757ZM35.1655 34.497L37.1408 32.1533L-17.9139 -14.2469L-19.8892 -11.9031L35.1655 34.497ZM37.4883 31.7346C38.3905 30.6307 39.2272 29.4752 39.9942 28.274L-20.6886 -10.4764C-19.9457 -11.6398 -19.1353 -12.759 -18.2614 -13.8282L37.4883 31.7346ZM39.7682 28.6235C43.1633 23.4399 45.214 17.4924 45.7352 11.3177L-26.0097 5.26239C-25.5253 -0.477863 -23.6188 -6.00702 -20.4625 -10.8259L39.7682 28.6235ZM45.7352 11.3177C46.2563 5.14308 45.2315 -1.06408 42.7532 -6.74339L-23.2375 22.0529C-25.5415 16.7731 -26.4942 11.0026 -26.0097 5.26239L45.7352 11.3177ZM42.6395 -7.00116L40.6689 -11.4224L-25.0945 17.8894L-23.1239 22.3106L42.6395 -7.00116ZM40.8738 -10.9537C37.6923 -18.3734 32.1903 -24.561 25.1935 -28.588L-10.7222 33.8144C-17.2268 30.0707 -22.3417 24.3184 -25.2994 17.4207L40.8738 -10.9537ZM25.1935 -28.588C18.1966 -32.615 10.0825 -34.2642 2.06879 -33.2879L10.7756 38.1837C3.3257 39.0912 -4.21762 37.5581 -10.7222 33.8144L25.1935 -28.588ZM1.7298 -33.245C-8.16859 -31.9437 -17.2545 -27.0827 -23.83 -19.5705L30.3474 27.8511C25.3996 33.5038 18.5628 37.1616 11.1146 38.1407L1.7298 -33.245ZM-23.83 -19.5705C-30.4055 -12.0582 -34.0207 -2.40866 -33.9999 7.57488L37.9999 7.42523C38.0155 14.9375 35.2953 22.1984 30.3474 27.8511L-23.83 -19.5705ZM-34 7.50005C-34 34.7229 -11.9104 56.8126 15.3125 56.8126V-15.1874C27.8541 -15.1874 38 -5.04158 38 7.50005L-34 7.50005ZM15.2435 56.8125C25.225 56.8316 34.8721 53.2165 42.3828 46.6423L-5.03877 -7.5351C0.612479 -12.4816 7.87119 -15.2018 15.3815 -15.1874L15.2435 56.8125ZM42.3828 46.6423C49.8935 40.0682 54.7542 30.9847 56.0568 21.0885L-15.3274 11.6922C-14.3473 4.24609 -10.69 -2.58856 -5.03877 -7.5351L42.3828 46.6423ZM56.0991 20.755C57.0734 12.7788 55.4466 4.70118 51.4609 -2.27615L-11.0579 33.4366C-14.7631 26.9501 -16.2754 19.4408 -15.3697 12.0257L56.0991 20.755ZM51.4609 -2.27615C47.4752 -9.25355 41.3435 -14.7578 33.9782 -17.97L5.19499 48.0264C-1.65222 45.0401 -7.35253 39.9231 -11.0579 33.4366L51.4609 -2.27615ZM15.3125 -16.3124C28.4748 -16.3124 39.125 -5.6622 39.125 7.50005H-32.875C-32.875 34.1023 -11.2897 55.6876 15.3125 55.6876V-16.3124ZM39.1248 7.38277C39.1502 15.1678 36.3403 22.6958 31.2201 28.5602L-23.0166 -18.7936C-29.4021 -11.4799 -32.9064 -2.09159 -32.8748 7.61734L39.1248 7.38277ZM31.2201 28.5602C26.0999 34.4246 19.0197 38.2243 11.3024 39.2492L1.82326 -32.1241C-7.80122 -30.8459 -16.6311 -26.1072 -23.0166 -18.7936L31.2201 28.5602ZM6.56282 39.5626H6.58439V-32.4374H6.56282V39.5626ZM5.91238 39.5563C-1.30362 39.4216 -8.31044 37.1097 -14.1897 32.924L27.569 -25.7294C21.6281 -29.959 14.5479 -32.295 7.25639 -32.4312L5.91238 39.5563ZM-14.1897 32.924C-20.069 28.7381 -24.5465 22.8736 -27.0351 16.0991L40.5489 -8.72836C38.0342 -15.5738 33.5099 -21.4997 27.569 -25.7294L-14.1897 32.924ZM-26.0982 18.4008L-24.1201 22.8173L41.5901 -6.61346L39.612 -11.03L-26.0982 18.4008ZM-23.9774 23.1319C-26.1321 18.4421 -27.2479 13.3418 -27.2479 8.18021H44.7521C44.7521 2.96462 43.6247 -2.18914 41.4474 -6.92807L-23.9774 23.1319ZM-27.2479 8.18021C-27.2479 3.01876 -26.1322 -2.0816 -23.9774 -6.77151L41.4474 23.2885C43.6248 18.5495 44.7521 13.3957 44.7521 8.18021H-27.2479ZM-18.7981 -14.9348L-20.7772 -12.5854L34.2891 33.8011L36.2681 31.4518L-18.7981 -14.9348ZM-20.2651 -13.18C-21.4782 -11.802 -22.5858 -10.3339 -23.5781 -8.78831L37.0094 30.1109C36.0412 31.6189 34.9606 33.0513 33.777 34.3957L-20.2651 -13.18ZM-23.3987 -9.06502C-26.9192 -3.69052 -28.9924 2.50201 -29.4173 8.9129L42.4251 13.6745C42.0301 19.6344 40.1028 25.3912 36.83 30.3876L-23.3987 -9.06502ZM-29.4173 8.9129C-29.8422 15.3237 -28.6045 21.7357 -25.824 27.5279L39.0846 -3.6309C41.6695 1.75378 42.8201 7.71466 42.4251 13.6745L-29.4173 8.9129ZM-25.7173 27.7482C-21.3072 36.7772 -13.6763 44.2935 -4.76159 48.6004L26.5591 -16.2303C29.8789 -14.6264 32.2133 -12.7237 33.7905 -11.1584C35.361 -9.59965 37.3207 -7.24416 38.9779 -3.85125L-25.7173 27.7482ZM-4.53703 48.7079C1.28897 51.473 7.73217 52.6809 14.1641 52.2138L8.94908 -19.5971C14.9285 -20.0313 20.9184 -18.9084 26.3346 -16.3378L-4.53703 48.7079ZM14.1641 52.2138C20.5961 51.7467 26.7971 49.6206 32.1625 46.0427L-7.78308 -13.8601C-2.7952 -17.1862 2.96962 -19.1628 8.94908 -19.5971L14.1641 52.2138ZM32.5183 45.8024C33.2193 45.3227 34.1902 44.6234 35.2888 43.7079L-10.8044 -11.604C-9.73954 -12.4915 -8.8043 -13.1645 -8.13892 -13.6198L32.5183 45.8024ZM35.5717 43.4697L37.8855 41.5009L-8.77358 -13.3346L-11.0873 -11.3658L35.5717 43.4697ZM31.5965 45.7947C27.0487 48.2385 22.027 49.67 16.8755 49.992L12.3843 -21.8678C7.1811 -21.5426 2.10891 -20.0967 -2.48461 -17.6283L31.5965 45.7947ZM16.8755 49.992C11.7244 50.3139 6.5635 49.519 1.74651 47.6603L27.6654 -19.5127C22.8 -21.39 17.5872 -22.193 12.3843 -21.8678L16.8755 49.992ZM-0.0136735 46.927L4.41601 48.9117L33.8553 -16.7947L29.4256 -18.7794L-0.0136735 46.927ZM5.03087 49.1803C-1.88031 46.2372 -7.69087 41.1956 -11.579 34.7689L50.0242 -2.50102C46.0953 -8.99498 40.224 -14.0894 33.2404 -17.0633L5.03087 49.1803ZM-11.579 34.7689C-15.4668 28.3428 -17.2363 20.8562 -16.6357 13.3678L55.1338 19.1242C55.7407 11.5574 53.9527 3.99238 50.0242 -2.50102L-11.579 34.7689ZM-16.4411 11.5331C-15.4218 3.81419 -11.6267 -3.26937 -5.76516 -8.39389L41.6243 45.8116C48.9348 39.4204 53.668 30.5858 54.9392 20.9589L-16.4411 11.5331ZM-5.76516 -8.39389C0.0964142 -13.5184 7.62344 -16.3332 15.4093 -16.3123L15.2157 55.6874C24.9262 55.7135 34.3138 52.2029 41.6243 45.8116L-5.76516 -8.39389Z" fill="black" mask="url(#path-1-inside-1_251_718)"/>
</svg>
