<svg width="169" height="173" viewBox="0 0 169 173" fill="none" xmlns="http://www.w3.org/2000/svg">
<path d="M166.996 78.715H87.7334V102.329H144.004C141.151 135.286 113.751 149.385 87.8198 149.385C54.7145 149.385 25.6717 123.262 25.6717 86.5C25.6717 51.035 53.3315 23.6145 87.9063 23.6145C114.615 23.6145 130.26 40.655 130.26 40.655L146.683 23.528C146.683 23.528 125.593 0 87.0419 0C37.9458 0 0 41.52 0 86.5C0 130.182 35.6984 173 88.3384 173C134.582 173 168.293 141.255 168.293 94.3715C168.293 84.424 166.996 78.715 166.996 78.715Z" fill="white"/>
</svg>
