<svg width="173" height="173" viewBox="0 0 173 173" fill="none" xmlns="http://www.w3.org/2000/svg">
<mask id="path-2-inside-1_12_549" fill="white">
<path d="M24.0613 122.542C30.3867 133.504 39.4879 142.606 50.4488 148.933C61.4098 155.26 73.8439 158.589 86.4999 158.583C99.1558 158.589 111.59 155.26 122.551 148.933C133.512 142.606 142.613 133.504 148.938 122.542M24.0613 50.4584C30.3867 39.4966 39.4879 30.3941 50.4488 24.0671C61.4098 17.74 73.8439 14.4116 86.4999 14.4168C99.1558 14.4116 111.59 17.74 122.551 24.0671C133.512 30.3941 142.613 39.4966 148.938 50.4584"/>
</mask>
<path d="M33.5888 117.044C30.5525 111.782 23.8254 109.978 18.5635 113.014C13.3016 116.051 11.4974 122.778 14.5337 128.04L33.5888 117.044ZM86.4999 158.583L86.5043 147.583H86.4954L86.4999 158.583ZM158.466 128.04C161.502 122.778 159.698 116.051 154.436 113.014C149.174 109.978 142.447 111.782 139.411 117.044L158.466 128.04ZM14.5337 44.9606C11.4974 50.2225 13.3016 56.9496 18.5635 59.986C23.8254 63.0223 30.5525 61.2181 33.5888 55.9562L14.5337 44.9606ZM86.4999 14.4168L86.4954 25.4168L86.5043 25.4168L86.4999 14.4168ZM139.411 55.9562C142.447 61.2181 149.174 63.0223 154.436 59.986C159.698 56.9496 161.502 50.2225 158.466 44.9606L139.411 55.9562ZM14.5337 128.04C21.8248 140.675 32.3154 151.167 44.9497 158.46L55.948 139.406C46.6604 134.045 38.9486 126.332 33.5888 117.044L14.5337 128.04ZM44.9497 158.46C57.5839 165.753 71.9162 169.589 86.5043 169.583L86.4954 147.583C75.7715 147.588 65.2356 144.767 55.948 139.406L44.9497 158.46ZM86.4954 169.583C101.083 169.589 115.416 165.753 128.05 158.46L117.052 139.406C107.764 144.767 97.2282 147.588 86.5043 147.583L86.4954 169.583ZM128.05 158.46C140.684 151.167 151.175 140.675 158.466 128.04L139.411 117.044C134.051 126.332 126.339 134.045 117.052 139.406L128.05 158.46ZM33.5888 55.9562C38.9486 46.6678 46.6604 38.955 55.948 33.5938L44.9497 14.5403C32.3154 21.8333 21.8248 32.3253 14.5337 44.9606L33.5888 55.9562ZM55.948 33.5938C65.2356 28.2327 75.7715 25.4124 86.4954 25.4168L86.5043 3.41675C71.9162 3.41084 57.5839 7.24738 44.9497 14.5403L55.948 33.5938ZM86.5043 25.4168C97.2282 25.4124 107.764 28.2327 117.052 33.5938L128.05 14.5403C115.416 7.24738 101.083 3.41084 86.4954 3.41675L86.5043 25.4168ZM117.052 33.5938C126.339 38.955 134.051 46.6678 139.411 55.9562L158.466 44.9606C151.175 32.3253 140.684 21.8333 128.05 14.5403L117.052 33.5938Z" fill="#762990" mask="url(#path-2-inside-1_12_549)"/>
<mask id="path-4-inside-2_12_549" fill="white">
<path d="M93.7083 158.223C93.7083 158.223 103.858 144.866 110.251 122.542L93.7083 158.223ZM93.7083 14.7771C93.7083 14.7771 103.858 28.1269 110.251 50.4583L93.7083 14.7771ZM79.2916 158.223C79.2916 158.223 69.1423 144.873 62.7485 122.542L79.2916 158.223ZM79.2916 14.7771C79.2916 14.7771 69.1423 28.1269 62.7485 50.4583L79.2916 14.7771ZM64.8749 72.0834L75.6874 108.125L86.4999 72.0834L97.3124 108.125L108.125 72.0834M7.20825 72.0834L18.0208 108.125L28.8333 72.0834L39.6458 108.125L50.4583 72.0834M122.542 72.0834L133.354 108.125L144.167 72.0834L154.979 108.125L165.792 72.0834"/>
</mask>
<path d="M88.9309 154.593C86.9261 157.231 87.4398 160.995 90.0782 163C92.7167 165.005 96.4808 164.491 98.4856 161.853L88.9309 154.593ZM116.019 124.194C116.932 121.008 115.089 117.686 111.903 116.774C108.718 115.861 105.396 117.704 104.483 120.89L116.019 124.194ZM98.4846 11.1458C96.4791 8.5079 92.7149 7.99522 90.077 10.0007C87.439 12.0062 86.9264 15.7705 88.9319 18.4084L98.4846 11.1458ZM104.483 52.1099C105.395 55.2956 108.717 57.1387 111.903 56.2266C115.089 55.3145 116.932 51.9925 116.02 48.8068L104.483 52.1099ZM74.5152 161.854C76.5207 164.492 80.2849 165.005 82.9229 162.999C85.5608 160.994 86.0735 157.23 84.068 154.592L74.5152 161.854ZM68.5167 120.89C67.6046 117.704 64.2826 115.861 61.0969 116.773C57.9112 117.686 56.0681 121.008 56.9802 124.193L68.5167 120.89ZM84.068 18.4084C86.0735 15.7705 85.5608 12.0062 82.9229 10.0007C80.2849 7.99522 76.5207 8.5079 74.5152 11.1458L84.068 18.4084ZM56.9802 48.8068C56.0681 51.9925 57.9112 55.3145 61.0969 56.2266C64.2826 57.1387 67.6046 55.2956 68.5167 52.1099L56.9802 48.8068ZM70.6219 70.3593C69.6697 67.1853 66.3248 65.3842 63.1508 66.3364C59.9769 67.2886 58.1758 70.6335 59.128 73.8074L70.6219 70.3593ZM75.6874 108.125L69.9405 109.849C70.7018 112.387 73.0378 114.125 75.6874 114.125C78.3371 114.125 80.673 112.387 81.4344 109.849L75.6874 108.125ZM86.4999 72.0834L92.2469 70.3593C91.4855 67.8214 89.1496 66.0834 86.4999 66.0834C83.8503 66.0834 81.5143 67.8214 80.753 70.3593L86.4999 72.0834ZM97.3124 108.125L91.5655 109.849C92.3268 112.387 94.6628 114.125 97.3124 114.125C99.9621 114.125 102.298 112.387 103.059 109.849L97.3124 108.125ZM113.872 73.8074C114.824 70.6335 113.023 67.2886 109.849 66.3364C106.675 65.3842 103.33 67.1853 102.378 70.3593L113.872 73.8074ZM12.9552 70.3593C12.003 67.1853 8.65812 65.3842 5.48416 66.3364C2.31021 67.2886 0.509107 70.6335 1.46129 73.8074L12.9552 70.3593ZM18.0208 108.125L12.2738 109.849C13.0352 112.387 15.3711 114.125 18.0208 114.125C20.6704 114.125 23.0063 112.387 23.7677 109.849L18.0208 108.125ZM28.8333 72.0834L34.5802 70.3593C33.8188 67.8214 31.4829 66.0834 28.8333 66.0834C26.1836 66.0834 23.8477 67.8214 23.0863 70.3593L28.8333 72.0834ZM39.6458 108.125L33.8988 109.849C34.6602 112.387 36.9961 114.125 39.6458 114.125C42.2954 114.125 44.6313 112.387 45.3927 109.849L39.6458 108.125ZM56.2052 73.8074C57.1574 70.6335 55.3563 67.2886 52.1823 66.3364C49.0084 65.3842 45.6635 67.1853 44.7113 70.3593L56.2052 73.8074ZM128.289 70.3593C127.336 67.1853 123.991 65.3842 120.817 66.3364C117.644 67.2886 115.842 70.6335 116.795 73.8074L128.289 70.3593ZM133.354 108.125L127.607 109.849C128.368 112.387 130.704 114.125 133.354 114.125C136.004 114.125 138.34 112.387 139.101 109.849L133.354 108.125ZM144.167 72.0834L149.914 70.3593C149.152 67.8214 146.816 66.0834 144.167 66.0834C141.517 66.0834 139.181 67.8214 138.42 70.3593L144.167 72.0834ZM154.979 108.125L149.232 109.849C149.993 112.387 152.329 114.125 154.979 114.125C157.629 114.125 159.965 112.387 160.726 109.849L154.979 108.125ZM171.539 73.8074C172.491 70.6335 170.69 67.2886 167.516 66.3364C164.342 65.3842 160.997 67.1853 160.045 70.3593L171.539 73.8074ZM93.7083 158.223C98.4856 161.853 98.4865 161.852 98.4875 161.85C98.4878 161.85 98.4889 161.849 98.4896 161.848C98.4911 161.846 98.4927 161.844 98.4946 161.841C98.4982 161.836 98.5024 161.831 98.5072 161.824C98.5169 161.812 98.529 161.795 98.5435 161.776C98.5725 161.737 98.611 161.685 98.6587 161.62C98.754 161.491 98.8858 161.309 99.0506 161.077C99.3803 160.612 99.8423 159.944 100.409 159.081C101.543 157.355 103.098 154.846 104.852 151.622C108.358 145.181 112.68 135.853 116.019 124.194L104.483 120.89C101.429 131.555 97.4794 140.067 94.3123 145.885C92.7302 148.792 91.3481 151.017 90.3787 152.494C89.8942 153.231 89.5134 153.781 89.2631 154.134C89.1379 154.31 89.0454 154.438 88.9889 154.514C88.9607 154.553 88.9414 154.579 88.9316 154.592C88.9267 154.598 88.9242 154.602 88.924 154.602C88.924 154.602 88.9245 154.601 88.9257 154.6C88.9262 154.599 88.927 154.598 88.9278 154.597C88.9283 154.596 88.929 154.595 88.9293 154.595C88.9301 154.594 88.9309 154.593 93.7083 158.223ZM93.7083 14.7771C88.9319 18.4084 88.931 18.4073 88.9302 18.4062C88.93 18.4059 88.9292 18.4049 88.9288 18.4043C88.9279 18.4031 88.9272 18.4022 88.9266 18.4014C88.9254 18.3999 88.9249 18.3992 88.925 18.3993C88.9251 18.3994 88.9276 18.4028 88.9325 18.4093C88.9423 18.4224 88.9615 18.4482 88.9897 18.4866C89.0462 18.5634 89.1387 18.6905 89.2638 18.8668C89.5141 19.2195 89.8948 19.7688 90.3793 20.5063C91.3485 21.9817 92.7304 24.2063 94.3124 27.1123C97.4794 32.9296 101.429 41.4415 104.483 52.1099L116.02 48.8068C112.68 37.1437 108.358 27.8151 104.852 21.3746C103.097 18.1517 101.542 15.6432 100.409 13.9176C99.8417 13.0546 99.3796 12.3865 99.0499 11.9219C98.885 11.6895 98.7532 11.508 98.6579 11.3783C98.6102 11.3135 98.5716 11.2616 98.5426 11.2228C98.5281 11.2034 98.516 11.1873 98.5063 11.1745C98.5015 11.168 98.4972 11.1624 98.4936 11.1577C98.4918 11.1553 98.4902 11.1531 98.4887 11.1511C98.4879 11.1501 98.4869 11.1488 98.4865 11.1483C98.4856 11.147 98.4846 11.1458 93.7083 14.7771ZM79.2916 158.223C84.068 154.592 84.0688 154.593 84.0696 154.594C84.0698 154.594 84.0706 154.595 84.0711 154.596C84.0719 154.597 84.0727 154.598 84.0732 154.599C84.0744 154.6 84.0749 154.601 84.0749 154.601C84.0748 154.601 84.0722 154.597 84.0673 154.591C84.0575 154.578 84.0383 154.552 84.0101 154.513C83.9536 154.437 83.8612 154.31 83.736 154.133C83.4857 153.781 83.105 153.231 82.6206 152.494C81.6513 151.018 80.2694 148.794 78.6874 145.888C75.5205 140.07 71.5712 131.558 68.5167 120.89L56.9802 124.193C60.3195 135.856 64.6418 145.185 68.148 151.625C69.9026 154.848 71.4576 157.357 72.5911 159.082C73.1581 159.945 73.6202 160.614 73.9499 161.078C74.1148 161.311 74.2466 161.492 74.342 161.622C74.3896 161.687 74.4282 161.738 74.4572 161.777C74.4717 161.797 74.4838 161.813 74.4935 161.826C74.4984 161.832 74.5026 161.838 74.5062 161.842C74.508 161.845 74.5097 161.847 74.5112 161.849C74.5119 161.85 74.5129 161.851 74.5133 161.852C74.5143 161.853 74.5152 161.854 79.2916 158.223ZM79.2916 14.7771C74.5152 11.1458 74.5143 11.147 74.5133 11.1483C74.5129 11.1488 74.5119 11.1501 74.5112 11.1511C74.5097 11.1531 74.508 11.1553 74.5062 11.1577C74.5026 11.1624 74.4984 11.168 74.4935 11.1745C74.4838 11.1873 74.4717 11.2034 74.4572 11.2228C74.4282 11.2616 74.3896 11.3135 74.342 11.3783C74.2466 11.508 74.1148 11.6895 73.9499 11.9219C73.6202 12.3865 73.1581 13.0546 72.5911 13.9176C71.4576 15.6432 69.9026 18.1517 68.148 21.3746C64.6418 27.8151 60.3195 37.1437 56.9802 48.8068L68.5167 52.1099C71.5712 41.4415 75.5205 32.9296 78.6874 27.1123C80.2694 24.2063 81.6513 21.9817 82.6206 20.5063C83.105 19.7688 83.4857 19.2195 83.736 18.8668C83.8612 18.6905 83.9536 18.5634 84.0101 18.4866C84.0383 18.4482 84.0575 18.4224 84.0673 18.4093C84.0722 18.4028 84.0747 18.3994 84.0749 18.3993C84.0749 18.3992 84.0744 18.3999 84.0732 18.4014C84.0727 18.4022 84.0719 18.4031 84.0711 18.4043C84.0706 18.4049 84.0698 18.4059 84.0696 18.4062C84.0688 18.4073 84.068 18.4084 79.2916 14.7771ZM59.128 73.8074L69.9405 109.849L81.4344 106.401L70.6219 70.3593L59.128 73.8074ZM81.4344 109.849L92.2469 73.8074L80.753 70.3593L69.9405 106.401L81.4344 109.849ZM80.753 73.8074L91.5655 109.849L103.059 106.401L92.2469 70.3593L80.753 73.8074ZM103.059 109.849L113.872 73.8074L102.378 70.3593L91.5655 106.401L103.059 109.849ZM1.46129 73.8074L12.2738 109.849L23.7677 106.401L12.9552 70.3593L1.46129 73.8074ZM23.7677 109.849L34.5802 73.8074L23.0863 70.3593L12.2738 106.401L23.7677 109.849ZM23.0863 73.8074L33.8988 109.849L45.3927 106.401L34.5802 70.3593L23.0863 73.8074ZM45.3927 109.849L56.2052 73.8074L44.7113 70.3593L33.8988 106.401L45.3927 109.849ZM116.795 73.8074L127.607 109.849L139.101 106.401L128.289 70.3593L116.795 73.8074ZM139.101 109.849L149.914 73.8074L138.42 70.3593L127.607 106.401L139.101 109.849ZM138.42 73.8074L149.232 109.849L160.726 106.401L149.914 70.3593L138.42 73.8074ZM160.726 109.849L171.539 73.8074L160.045 70.3593L149.232 106.401L160.726 109.849Z" fill="#762990" mask="url(#path-4-inside-2_12_549)"/>
<rect width="173" height="173" stroke="black"/>
</svg>
