<svg width="62" height="61" viewBox="0 0 62 61" fill="none" xmlns="http://www.w3.org/2000/svg">
<path fill-rule="evenodd" clip-rule="evenodd" d="M9.54416 0.123163C5.26168 1.0999 1.83543 4.20981 0.546573 8.29002C-0.810961 12.588 0.408739 17.3246 3.66696 20.4065C4.74233 21.4237 5.52929 21.9693 6.87034 22.6279C7.56601 22.9694 7.78599 23.133 7.73102 23.2683C7.69049 23.3681 7.52993 23.9425 7.37429 24.5446C6.86505 26.5143 6.68296 28.0658 6.68296 30.4343C6.68296 32.8842 6.86024 34.3171 7.42877 36.4635C7.62001 37.1859 7.76831 37.7828 7.75833 37.7902C7.74822 37.7975 7.28 38.0314 6.71771 38.3098C3.47525 39.916 1.14963 42.8306 0.258757 46.4044C0.118517 46.9671 0.0565761 47.7469 0.0523665 48.9996C0.047315 50.5078 0.0909745 50.9602 0.328997 51.865C0.719647 53.3499 1.21121 54.3945 1.60282 54.5716C2.01813 54.7594 2.50548 54.5863 2.74266 54.1668C2.90779 53.8749 2.90382 53.7922 2.70008 53.2729C1.49205 50.1953 1.50311 47.4307 2.73364 44.824C4.12196 41.8831 6.44 39.9664 9.61235 39.1362C11.5844 38.6201 14.2383 38.8436 16.1502 39.6867C18.4507 40.7013 20.4533 42.6886 21.4662 44.9624C22.2467 46.7142 22.5084 49.4411 22.0694 51.2477C21.3029 54.402 19.2581 56.8899 16.3209 58.2418C14.7692 58.9559 13.8935 59.1384 12.0098 59.1398C10.6836 59.1407 10.2098 59.0914 9.42388 58.8706C8.11903 58.5039 6.70521 57.7934 5.70296 57.0005C4.75833 56.2534 4.26328 56.1481 3.83583 56.6036C3.29989 57.1745 3.56521 57.6638 4.97374 58.7019C7.11871 60.2828 9.98231 61.1169 12.7237 60.9594C17.0763 60.7093 20.8794 58.2102 22.8388 54.3126C23.1192 53.7544 23.3549 53.2888 23.3622 53.2779C23.3697 53.267 23.9752 53.4114 24.7079 53.5987C28.4499 54.5554 32.9649 54.5757 36.6312 53.6526C37.266 53.4927 37.8784 53.3326 37.9921 53.2968C38.1536 53.2459 38.2607 53.3829 38.4807 53.9213C39.3777 56.118 41.7611 58.5643 44.1831 59.7742C50.9109 63.135 59.2811 59.2773 61.1527 51.9535C61.5519 50.3911 61.5688 47.6905 61.1886 46.1982C60.3055 42.7317 58.1188 39.9982 54.9308 38.3759C54.3116 38.0609 53.7936 37.7948 53.7795 37.7846C53.7656 37.7743 53.8829 37.3009 54.0405 36.7325C55.144 32.7511 55.1242 27.8599 53.9887 23.9353C53.857 23.4799 53.7617 23.0983 53.7771 23.0873C53.7925 23.0762 54.2598 22.8434 54.8156 22.5698C57.9792 21.013 60.2789 18.1968 61.1534 14.8085C61.5706 13.1921 61.5703 10.5493 61.1527 8.91503C60.1312 4.91804 57.0935 1.73256 53.0232 0.390003C52.0316 0.0628705 51.9251 0.0527222 49.4751 0.0527222C47.017 0.0527222 46.9221 0.0619154 45.9271 0.393346C43.3849 1.24007 41.4238 2.62083 39.8134 4.69741C39.359 5.28338 38.41 6.93289 38.2186 7.4698C38.1841 7.5665 37.7749 7.50454 36.8464 7.26206C34.6853 6.69757 33.2412 6.52147 30.7725 6.52147C28.3865 6.52147 26.8236 6.70223 24.8393 7.20773C24.2327 7.36222 23.6545 7.52149 23.5542 7.56161C23.418 7.61617 23.2506 7.38551 22.8927 6.65053C21.3515 3.48582 18.4536 1.14169 14.9639 0.236943C14.1705 0.0312318 13.6726 -0.0085256 12.0172 0.00138389C10.9217 0.00806982 9.80876 0.0627511 9.54416 0.123163ZM14.5355 1.96382C17.6438 2.76661 20.287 5.028 21.5012 7.92313C22.0744 9.29004 22.2675 10.2673 22.2686 11.8092C22.2702 14.0478 21.6966 15.8876 20.4299 17.7064C19.7634 18.6637 19.6664 19.149 20.0697 19.5114C20.3847 19.7943 20.9598 19.789 21.284 19.5C21.7042 19.1254 22.4728 17.9329 22.9613 16.8975C23.8818 14.9467 24.2727 12.7173 24.0468 10.7063C23.9754 10.0704 23.9169 9.49814 23.9169 9.4345C23.9169 9.15716 26.8523 8.53417 29.0809 8.33861C31.4977 8.12645 34.5655 8.43508 36.9876 9.13399L37.655 9.32669L37.5802 9.79065C36.9366 13.7861 38.2945 17.8311 41.1786 20.5093C43.8959 23.0325 47.4491 24.1631 51.2339 23.7088L52.0304 23.6132L52.2918 24.5749C53.3231 28.3689 53.3193 32.4429 52.2809 36.32L52.0316 37.2512L51.1743 37.1558C46.6153 36.6488 42.4255 38.3961 39.8001 41.8992C38.5594 43.5547 37.8645 45.261 37.5407 47.4475C37.377 48.5523 37.3679 48.9779 37.4832 50.1278C37.5586 50.8796 37.603 51.512 37.5817 51.5331C37.4718 51.6422 35.0763 52.1753 33.9494 52.3414C32.2701 52.5889 29.2849 52.5893 27.5753 52.3421C26.4318 52.1768 24.071 51.6399 23.9471 51.5169C23.9233 51.4934 23.9648 50.912 24.0393 50.2252C24.4228 46.6898 23.1417 43.1379 20.5584 40.5735C17.8794 37.9141 14.3113 36.7178 10.3663 37.1562L9.50471 37.252L9.31275 36.5965C8.60999 34.1969 8.30052 31.1548 8.51341 28.74C8.71655 26.436 9.33728 23.6279 9.6429 23.6299C9.72084 23.6305 10.2718 23.6869 10.8672 23.7553C12.8789 23.9865 15.4788 23.5254 17.3017 22.6141C18.4188 22.0557 18.6825 21.5119 18.1228 20.9204C17.7684 20.546 17.5388 20.5693 16.2795 21.1069C14.4382 21.8931 12.6415 22.1755 10.8638 21.9583C8.76105 21.7014 6.71026 20.7677 5.15656 19.3601C2.1467 16.6332 1.0492 12.4392 2.33902 8.59315C2.85199 7.06327 3.52251 6.02659 4.85347 4.70541C6.50206 3.06891 8.19961 2.16691 10.3457 1.78712C11.2563 1.62594 13.6123 1.72528 14.5355 1.96382ZM52.1016 2.00609C54.3897 2.60651 56.5942 4.15812 57.9429 6.11745C58.5022 6.93003 59.2125 8.49716 59.4675 9.48106C59.7852 10.707 59.7604 13.1004 59.4169 14.3761C57.769 20.4943 51.0102 23.716 45.2561 21.1261C42.4762 19.8749 40.3367 17.3512 39.5339 14.3761C39.1875 13.0922 39.1644 10.7029 39.4865 9.48106C40.3273 6.29236 42.6456 3.61047 45.5949 2.4144C47.52 1.63382 50.0722 1.4736 52.1016 2.00609ZM50.2496 5.04746C49.3036 5.30069 48.5127 6.0014 48.0823 6.96764C47.8696 7.44496 47.8074 7.86283 47.7581 9.14653L47.697 10.7347H46.9832C46.3491 10.7347 46.2287 10.775 45.9055 11.0958C45.6139 11.3854 45.5571 11.5216 45.6193 11.7823C45.7497 12.3296 46.1017 12.5255 46.9548 12.5255H47.7154L47.7534 15.3786C47.7881 17.9863 47.811 18.2534 48.0204 18.4828C48.3143 18.8048 49.0544 18.8246 49.3339 18.518C49.5027 18.333 49.5354 17.8929 49.5631 15.4437L49.5954 12.5852L50.5237 12.5255C51.5796 12.4576 51.8294 12.2995 51.8468 11.688C51.8552 11.3967 51.7719 11.2181 51.532 11.0132C51.2568 10.7783 51.0727 10.7347 50.356 10.7347H49.5063L49.5562 9.24383C49.5985 7.98413 49.644 7.70189 49.8499 7.42311C50.234 6.90328 50.8086 6.67572 51.7382 6.6756C52.189 6.67549 52.6652 6.61842 52.7964 6.54869C53.3732 6.24221 53.319 5.29532 52.7087 5.01941C52.3218 4.84438 50.9498 4.86002 50.2496 5.04746ZM12.8753 6.63107C12.1026 6.91152 11.2269 7.84122 10.9682 8.65619C10.7595 9.3132 10.7489 9.32383 10.3641 9.26186C9.65421 9.14748 8.71535 8.57918 7.82977 7.72756C7.06314 6.99032 6.91713 6.89791 6.62703 6.96608C5.91224 7.13407 5.52532 8.10257 5.4279 9.96711C5.3312 11.8176 5.74001 12.9816 6.91653 14.206L7.56625 14.8822L7.18185 14.9585C6.97053 15.0005 6.42521 15.0692 5.97021 15.1112C5.04314 15.1967 4.79333 15.3971 4.79333 16.0557C4.79333 16.5143 5.0168 16.7236 5.94002 17.1294C7.11546 17.6461 8.31676 17.8984 9.59347 17.8964C11.901 17.8929 13.5512 17.2332 15.0824 15.7021C16.5499 14.2348 17.1929 12.848 17.4237 10.6529C17.5123 9.80975 17.6076 9.45599 17.8361 9.1217C18.2682 8.48952 18.6396 7.43207 18.5517 7.08416C18.4624 6.73088 18.0735 6.43658 17.6961 6.43658C17.5455 6.43658 17.1621 6.58081 16.8442 6.75691L16.2662 7.07736L15.6714 6.78938C14.9234 6.42715 13.6379 6.35444 12.8753 6.63107ZM15.1189 8.58634C15.654 8.97114 15.684 9.07239 15.633 10.3168C15.5233 12.9983 13.8369 15.176 11.2963 15.9169C10.498 16.1496 9.16866 16.1755 9.53706 15.951C10.0713 15.6257 10.3259 15.2791 10.3259 14.8776C10.3259 14.4138 10.1732 14.2547 9.26704 13.774C7.99118 13.0974 7.31043 12.0295 7.22251 10.5668L7.16574 9.6229L7.5731 9.9264C8.21212 10.4023 8.94567 10.7299 9.93396 10.9809C11.9036 11.4809 12.6111 11.1746 12.6111 9.82217C12.6111 8.42147 13.963 7.75526 15.1189 8.58634ZM36.7494 21.3636C36.5369 21.5296 36.4279 21.7434 36.4024 22.0441C36.366 22.4736 36.3374 22.4968 35.0245 23.1617C32.7081 24.3347 29.2218 25.533 28.8344 25.2894C28.7428 25.2319 27.5853 25.1839 26.2623 25.1831C23.562 25.1812 23.252 25.2536 22.7466 26.0046C22.4817 26.3984 22.4736 26.4946 22.4741 29.2879C22.4745 31.9486 22.4925 32.1948 22.7136 32.5545C23.0643 33.1257 23.6218 33.4181 24.3608 33.4186C24.7042 33.4188 25.0095 33.4593 25.0392 33.5086C25.069 33.5579 25.1578 34.9413 25.2366 36.5829C25.3571 39.0919 25.4137 39.6152 25.5924 39.8662C25.8876 40.2805 26.5709 40.3359 26.9346 39.9748C27.2235 39.6881 27.2229 39.7948 26.965 34.8984L26.8889 33.4526L28.1391 33.3923C29.2123 33.3405 29.5256 33.3717 30.3516 33.6117C31.5566 33.9622 31.7501 33.9631 32.0746 33.6203C32.3961 33.2806 32.4157 32.6918 32.1145 32.4213C31.8974 32.2263 30.9778 31.8883 29.9607 31.6296L29.4495 31.4996V29.3171V27.1346L30.6161 26.8075C32.1954 26.3647 33.8653 25.7354 35.1301 25.1063C35.7076 24.819 36.2353 24.5841 36.3027 24.5841C36.384 24.5841 36.4254 26.1912 36.4254 29.3534V34.1229L35.6563 33.7655C34.806 33.3706 34.3827 33.3845 34.0773 33.8175C33.6263 34.4566 33.9381 34.9056 35.3446 35.6418C36.3704 36.1785 36.4254 36.2274 36.4254 36.5994C36.4254 37.3591 37.2774 37.7389 37.8854 37.2502L38.1694 37.0219L38.2035 29.5793C38.2223 25.4857 38.2074 22.0143 38.1703 21.8649C38.0748 21.4792 37.6772 21.1217 37.3437 21.1217C37.1872 21.1217 36.9197 21.2306 36.7494 21.3636ZM27.6454 29.3V31.6282H25.9616H24.2777V29.3V26.9719H25.9616H27.6454V29.3ZM51.7383 39.0931C55.3288 39.8225 58.4168 42.7981 59.4172 46.4924C59.8141 47.9578 59.7856 50.2977 59.3535 51.7214C57.7791 56.9088 52.8055 59.9955 47.5941 59.0192C43.7697 58.3029 40.7629 55.5591 39.5963 51.7214C39.3185 50.8073 39.2772 50.4621 39.2782 49.0593C39.2795 47.1658 39.5151 46.096 40.2646 44.5817C42.3856 40.2964 46.939 38.1182 51.7383 39.0931ZM44.5439 42.8973C44.0869 43.0952 43.316 43.9362 43.1938 44.3702C43.1426 44.5524 43.1006 46.6894 43.1006 49.119V53.5365L43.4013 54.0691C43.7328 54.6563 44.2839 55.0819 44.9507 55.2658C45.5265 55.4246 53.4237 55.4246 53.9996 55.2658C54.6664 55.0819 55.2175 54.6563 55.549 54.0691L55.8497 53.5365V48.9996C55.8497 44.0287 55.8667 44.158 55.1091 43.3989C54.4509 42.7395 54.3806 42.7312 49.4489 42.7362C45.9761 42.7398 44.8197 42.7778 44.5439 42.8973ZM9.37697 44.3309C8.79088 44.6533 8.77115 44.7996 8.76658 48.8564C8.76213 52.8932 8.79834 53.1764 9.35713 53.4732C9.9656 53.7965 10.3425 53.6452 13.6908 51.7319C15.6399 50.6182 17.0334 49.7467 17.1517 49.5673C17.4026 49.1873 17.406 48.5769 17.1593 48.2093C16.8828 47.7972 10.4566 44.1632 10.0141 44.1685C9.82175 44.1708 9.53513 44.2439 9.37697 44.3309ZM53.9271 44.807C54.0898 45.0535 54.1103 45.6358 54.0802 49.1744C54.0472 53.057 54.0341 53.2658 53.8121 53.4269C53.467 53.6772 45.4832 53.6772 45.1382 53.4269C44.9162 53.2658 44.903 53.057 44.8701 49.1744C44.84 45.6358 44.8605 45.0535 45.0232 44.807L45.2109 44.5225H49.4751H53.7393L53.9271 44.807ZM48.528 46.4887C47.0181 47.023 46.3428 48.8168 47.1049 50.2695C48.1019 52.1698 50.8484 52.1698 51.8454 50.2695C52.9987 48.071 50.8801 45.6564 48.528 46.4887ZM12.9397 47.6992C14.049 48.3351 14.9709 48.8664 14.9886 48.8799C15.0063 48.8933 14.1403 49.4057 13.0642 50.0184C11.9881 50.6312 10.9859 51.2096 10.8371 51.3036L10.5665 51.4746V48.9409C10.5665 46.751 10.5907 46.4164 10.7447 46.4751C10.8429 46.5125 11.8306 47.0633 12.9397 47.6992ZM50.0819 48.3973C50.9152 49.2243 49.7105 50.4366 48.8514 49.6355C48.6858 49.481 48.5731 49.237 48.5731 49.0331C48.5731 48.6013 49.0559 48.1042 49.4751 48.1042C49.6465 48.1042 49.9196 48.2361 50.0819 48.3973Z" fill="#762990"/>
</svg>
