<svg width="173" height="173" viewBox="0 0 173 173" fill="none" xmlns="http://www.w3.org/2000/svg">
<path d="M43.2501 151.375L14.4167 122.542L43.2501 93.7084L53.3418 103.8L41.8084 115.333H131.192L119.658 103.8L129.75 93.7084L158.583 122.542L129.75 151.375L119.658 141.283L131.192 129.75H41.8084L53.3418 141.283L43.2501 151.375ZM14.4167 79.2917V75.1469C14.4167 72.2636 15.1977 69.6205 16.7595 67.2177C18.3213 64.8149 20.4838 63.0129 23.247 61.8115C26.3706 60.4899 29.5855 59.4688 32.8917 58.7479C36.1979 58.0271 39.6507 57.6667 43.2501 57.6667C46.8542 57.6667 50.3094 58.0271 53.6157 58.7479C56.9219 59.4688 60.1344 60.4899 63.2532 61.8115C66.0164 63.0129 68.1789 64.8149 69.7407 67.2177C71.3025 69.6205 72.0834 72.2636 72.0834 75.1469V79.2917H14.4167ZM100.917 79.2917V75.1469C100.917 72.2636 101.698 69.6205 103.259 67.2177C104.821 64.8149 106.984 63.0129 109.747 61.8115C112.871 60.4899 116.085 59.4688 119.392 58.7479C122.698 58.0271 126.151 57.6667 129.75 57.6667C133.354 57.6667 136.809 58.0271 140.116 58.7479C143.422 59.4688 146.634 60.4899 149.753 61.8115C152.516 63.0129 154.679 64.8149 156.241 67.2177C157.803 69.6205 158.583 72.2636 158.583 75.1469V79.2917H100.917ZM43.2501 50.4583C39.2855 50.4583 35.8904 49.0455 33.0647 46.2198C30.239 43.3942 28.8286 40.0015 28.8334 36.0417C28.8334 32.0771 30.2462 28.682 33.0719 25.8563C35.8976 23.0306 39.2903 21.6202 43.2501 21.625C47.2147 21.625 50.6098 23.0378 53.4355 25.8635C56.2611 28.6892 57.6716 32.0819 57.6667 36.0417C57.6667 40.0063 56.2539 43.4014 53.4282 46.2271C50.6026 49.0527 47.2099 50.4632 43.2501 50.4583ZM129.75 50.4583C125.785 50.4583 122.39 49.0455 119.565 46.2198C116.739 43.3942 115.329 40.0015 115.333 36.0417C115.333 32.0771 116.746 28.682 119.572 25.8563C122.398 23.0306 125.79 21.6202 129.75 21.625C133.715 21.625 137.11 23.0378 139.935 25.8635C142.761 28.6892 144.172 32.0819 144.167 36.0417C144.167 40.0063 142.754 43.4014 139.928 46.2271C137.103 49.0527 133.71 50.4632 129.75 50.4583Z" fill="white"/>
</svg>
