<svg width="48" height="48" viewBox="0 0 48 48" fill="none" xmlns="http://www.w3.org/2000/svg">
<path d="M12 42L4 34L12 26L14.8 28.8L11.6 32H36.4L33.2 28.8L36 26L44 34L36 42L33.2 39.2L36.4 36H11.6L14.8 39.2L12 42ZM4 22V20.85C4 20.05 4.21667 19.3167 4.65 18.65C5.08333 17.9833 5.68333 17.4833 6.45 17.15C7.31667 16.7833 8.20867 16.5 9.126 16.3C10.0433 16.1 11.0013 16 12 16C13 16 13.9587 16.1 14.876 16.3C15.7933 16.5 16.6847 16.7833 17.55 17.15C18.3167 17.4833 18.9167 17.9833 19.35 18.65C19.7833 19.3167 20 20.05 20 20.85V22H4ZM28 22V20.85C28 20.05 28.2167 19.3167 28.65 18.65C29.0833 17.9833 29.6833 17.4833 30.45 17.15C31.3167 16.7833 32.2087 16.5 33.126 16.3C34.0433 16.1 35.0013 16 36 16C37 16 37.9587 16.1 38.876 16.3C39.7933 16.5 40.6847 16.7833 41.55 17.15C42.3167 17.4833 42.9167 17.9833 43.35 18.65C43.7833 19.3167 44 20.05 44 20.85V22H28ZM12 14C10.9 14 9.958 13.608 9.174 12.824C8.39 12.04 7.99867 11.0987 8 10C8 8.9 8.392 7.958 9.176 7.174C9.96 6.39 10.9013 5.99867 12 6C13.1 6 14.042 6.392 14.826 7.176C15.61 7.96 16.0013 8.90134 16 10C16 11.1 15.608 12.042 14.824 12.826C14.04 13.61 13.0987 14.0013 12 14ZM36 14C34.9 14 33.958 13.608 33.174 12.824C32.39 12.04 31.9987 11.0987 32 10C32 8.9 32.392 7.958 33.176 7.174C33.96 6.39 34.9013 5.99867 36 6C37.1 6 38.042 6.392 38.826 7.176C39.61 7.96 40.0013 8.90134 40 10C40 11.1 39.608 12.042 38.824 12.826C38.04 13.61 37.0987 14.0013 36 14Z" fill="#762990"/>
</svg>
