<svg width="173" height="173" viewBox="0 0 173 173" fill="none" xmlns="http://www.w3.org/2000/svg">
<path d="M84.3376 129.75C72.8042 129.149 63.073 124.704 55.1438 116.415C47.2147 108.125 43.2501 98.1535 43.2501 86.5001C43.2501 74.4862 47.4549 64.2744 55.8647 55.8647C64.2744 47.4549 74.4862 43.2501 86.5001 43.2501C98.1535 43.2501 108.125 47.2147 116.415 55.1438C124.704 63.073 129.149 72.8042 129.75 84.3376L114.613 79.8324C113.051 73.3449 109.687 68.0299 104.521 63.8875C99.3549 59.7451 93.348 57.6716 86.5001 57.6667C78.5709 57.6667 71.7831 60.49 66.1365 66.1365C60.49 71.7831 57.6667 78.5709 57.6667 86.5001C57.6667 93.348 59.7403 99.3549 63.8875 104.521C68.0347 109.687 73.3497 113.051 79.8324 114.613L84.3376 129.75ZM92.9876 158.223C91.9063 158.463 90.8251 158.583 89.7438 158.583H86.5001C76.5285 158.583 67.1577 156.69 58.3876 152.903C49.6174 149.116 41.9886 143.982 35.5011 137.499C29.0136 131.012 23.8789 123.383 20.0969 114.613C16.3149 105.842 14.4216 96.4716 14.4167 86.5001C14.4167 76.5285 16.3101 67.1577 20.0969 58.3876C23.8837 49.6174 29.0184 41.9886 35.5011 35.5011C41.9886 29.0136 49.6174 23.8789 58.3876 20.0969C67.1577 16.3149 76.5285 14.4216 86.5001 14.4167C96.4716 14.4167 105.842 16.3101 114.613 20.0969C123.383 23.8837 131.012 29.0184 137.499 35.5011C143.987 41.9886 149.124 49.6174 152.91 58.3876C156.697 67.1577 158.588 76.5285 158.583 86.5001V89.7438C158.583 90.8251 158.463 91.9063 158.223 92.9876L144.167 88.6626V86.5001C144.167 70.4015 138.58 56.7657 127.407 45.5928C116.234 34.4199 102.599 28.8334 86.5001 28.8334C70.4015 28.8334 56.7657 34.4199 45.5928 45.5928C34.4199 56.7657 28.8334 70.4015 28.8334 86.5001C28.8334 102.599 34.4199 116.234 45.5928 127.407C56.7657 138.58 70.4015 144.167 86.5001 144.167H88.6626L92.9876 158.223ZM147.951 162.188L117.135 131.372L108.125 158.583L86.5001 86.5001L158.583 108.125L131.372 117.135L162.188 147.951L147.951 162.188Z" fill="#762990"/>
</svg>
