<svg width="173" height="185" viewBox="0 0 173 185" fill="none" xmlns="http://www.w3.org/2000/svg">
<path d="M18.0215 111.72V23.3C18.0215 18.7118 19.6501 14.3114 22.549 11.0671C25.4479 7.82267 29.3796 6 33.4793 6H138.592C142.692 6 146.623 7.82267 149.522 11.0671C152.421 14.3114 154.05 18.7118 154.05 23.3V111.72M18.0215 111.72H154.05M18.0215 111.72L6.5828 156.994C5.93313 159.567 5.82493 162.273 6.26668 164.9C6.70843 167.527 7.68812 170.003 9.12887 172.135C10.5696 174.268 12.4322 175.997 14.5705 177.188C16.7088 178.379 19.0647 178.999 21.4531 179H150.618C153.006 178.999 155.362 178.379 157.501 177.188C159.639 175.997 161.502 174.268 162.942 172.135C164.383 170.003 165.363 167.527 165.804 164.9C166.246 162.273 166.138 159.567 165.488 156.994L154.05 111.72" stroke="white" stroke-width="12"/>
<path d="M78.307 153.05H93.7647H78.307ZM101.494 40.5996L116.951 57.8996L101.494 75.1996M70.5781 40.5996L55.1204 57.8996L70.5781 75.1996" fill="#762990"/>
<path d="M78.307 153.05H93.7647M101.494 40.5996L116.951 57.8996L101.494 75.1996M70.5781 40.5996L55.1204 57.8996L70.5781 75.1996" stroke="white" stroke-width="4" stroke-linecap="round" stroke-linejoin="round"/>
</svg>
